<svg id="svg" version="1.1" xmlns="http://www.w3.org/2000/svg" xmlns:xlink="http://www.w3.org/1999/xlink" width="400" height="400" viewBox="0, 0, 400,400"><g id="svgg"><path id="path0" d="M0.000 200.000 L 0.000 400.000 200.000 400.000 L 400.000 400.000 400.000 200.000 L 400.000 0.000 200.000 0.000 L 0.000 0.000 0.000 200.000 M204.413 87.300 C 204.424 114.540,204.508 119.109,205.013 119.776 C 205.358 120.233,205.600 121.429,205.600 122.676 L 205.600 124.800 207.813 124.800 C 209.410 124.800,210.089 124.633,210.255 124.200 C 210.382 123.870,210.736 123.600,211.043 123.600 C 211.349 123.600,211.600 123.330,211.600 123.000 C 211.600 122.670,211.827 122.400,212.104 122.400 C 212.381 122.400,212.832 122.040,213.107 121.600 C 213.382 121.160,213.875 120.800,214.203 120.800 C 214.532 120.800,214.800 120.530,214.800 120.200 C 214.800 119.870,215.151 119.600,215.580 119.600 C 216.009 119.600,216.504 119.361,216.680 119.070 C 216.856 118.778,217.315 118.424,217.700 118.282 C 218.085 118.141,218.400 117.749,218.400 117.413 C 218.400 117.076,218.670 116.800,219.000 116.800 C 219.330 116.800,219.600 116.530,219.600 116.200 C 219.600 115.864,219.957 115.600,220.413 115.600 C 220.859 115.600,221.329 115.330,221.455 115.000 C 221.582 114.670,221.893 114.400,222.147 114.400 C 222.400 114.400,222.832 114.040,223.107 113.600 C 223.382 113.160,223.875 112.800,224.203 112.800 C 224.532 112.800,224.800 112.530,224.800 112.200 C 224.800 111.867,225.156 111.600,225.600 111.600 C 226.044 111.600,226.400 111.333,226.400 111.000 C 226.400 110.670,226.627 110.400,226.904 110.400 C 227.181 110.400,227.632 110.040,227.907 109.600 C 228.182 109.160,228.675 108.800,229.003 108.800 C 229.332 108.800,229.600 108.530,229.600 108.200 C 229.600 107.870,229.787 107.600,230.016 107.600 C 230.705 107.600,232.800 105.888,232.800 105.325 C 232.800 105.036,233.160 104.800,233.600 104.800 C 234.044 104.800,234.400 104.533,234.400 104.200 C 234.400 103.870,234.587 103.600,234.816 103.600 C 235.505 103.600,237.600 101.888,237.600 101.325 C 237.600 101.036,237.966 100.800,238.413 100.800 C 238.859 100.800,239.329 100.530,239.455 100.200 C 239.582 99.870,239.936 99.600,240.243 99.600 C 240.549 99.600,240.800 99.330,240.800 99.000 C 240.800 98.670,241.087 98.400,241.437 98.400 C 241.788 98.400,242.165 98.057,242.274 97.637 C 242.384 97.217,242.772 96.759,243.137 96.620 C 244.656 96.037,245.600 95.379,245.600 94.905 C 245.600 94.627,245.868 94.400,246.197 94.400 C 246.525 94.400,247.018 94.040,247.293 93.600 C 247.568 93.160,248.019 92.800,248.296 92.800 C 248.573 92.800,248.800 92.530,248.800 92.200 C 248.800 91.867,249.156 91.600,249.600 91.600 C 250.044 91.600,250.400 91.333,250.400 91.000 C 250.400 90.670,250.658 90.400,250.973 90.400 C 251.288 90.400,251.660 90.040,251.800 89.600 C 251.940 89.160,252.402 88.800,252.827 88.800 C 253.252 88.800,253.600 88.530,253.600 88.200 C 253.600 87.870,253.870 87.600,254.200 87.600 C 254.530 87.600,254.800 87.449,254.800 87.264 C 254.800 87.080,255.250 86.723,255.800 86.473 C 256.350 86.222,256.800 85.743,256.800 85.409 C 256.800 85.067,257.151 84.800,257.600 84.800 C 258.044 84.800,258.400 84.533,258.400 84.200 C 258.400 83.870,258.670 83.600,259.000 83.600 C 259.330 83.600,259.600 83.330,259.600 83.000 C 259.600 82.658,259.960 82.400,260.437 82.400 C 260.938 82.400,261.359 82.079,261.484 81.600 C 261.599 81.160,261.942 80.800,262.247 80.800 C 262.551 80.800,262.800 80.616,262.800 80.390 C 262.800 80.165,263.250 79.809,263.800 79.600 C 264.350 79.391,264.800 79.056,264.800 78.857 C 264.800 78.657,265.160 78.399,265.600 78.284 C 266.040 78.169,266.400 77.788,266.400 77.437 C 266.400 77.087,266.670 76.800,267.000 76.800 C 267.330 76.800,267.600 76.530,267.600 76.200 C 267.600 75.864,267.957 75.600,268.413 75.600 C 268.859 75.600,269.329 75.330,269.455 75.000 C 269.582 74.670,269.915 74.400,270.196 74.400 C 270.477 74.400,270.801 74.040,270.916 73.600 C 271.041 73.121,271.462 72.800,271.963 72.800 C 272.440 72.800,272.800 72.542,272.800 72.200 C 272.800 71.870,273.076 71.600,273.413 71.600 C 273.749 71.600,274.129 71.330,274.255 71.000 C 274.382 70.670,274.736 70.400,275.043 70.400 C 275.349 70.400,275.600 70.040,275.600 69.600 C 275.600 69.013,275.867 68.800,276.600 68.800 C 277.222 68.800,277.600 68.573,277.600 68.200 C 277.600 67.870,277.870 67.600,278.200 67.600 C 278.530 67.600,278.800 67.416,278.800 67.190 C 278.800 66.965,279.250 66.609,279.800 66.400 C 280.350 66.191,280.800 65.745,280.800 65.410 C 280.800 65.067,281.150 64.800,281.600 64.800 C 282.044 64.800,282.400 64.533,282.400 64.200 C 282.400 63.870,282.587 63.600,282.816 63.600 C 283.505 63.600,285.600 61.888,285.600 61.325 C 285.600 61.036,285.966 60.800,286.413 60.800 C 286.859 60.800,287.329 60.530,287.455 60.200 C 287.582 59.870,287.936 59.600,288.243 59.600 C 288.549 59.600,288.800 59.330,288.800 59.000 C 288.800 58.670,289.139 58.400,289.553 58.400 C 289.972 58.400,290.451 58.000,290.631 57.500 C 290.833 56.939,291.039 59.040,291.178 63.081 C 291.328 67.470,291.561 69.724,291.900 70.061 C 292.292 70.452,292.400 77.597,292.400 103.080 L 292.400 135.600 305.100 135.600 L 317.800 135.600 317.800 193.900 L 317.800 252.200 301.200 252.400 L 284.600 252.600 284.498 285.171 C 284.406 314.329,284.328 317.816,283.757 318.447 C 283.302 318.951,283.160 319.730,283.260 321.176 C 283.400 323.207,283.076 323.897,282.684 322.400 C 282.559 321.921,282.138 321.600,281.637 321.600 C 281.160 321.600,280.800 321.342,280.800 321.000 C 280.800 320.670,280.530 320.400,280.200 320.400 C 279.870 320.400,279.600 320.130,279.600 319.800 C 279.600 319.470,279.330 319.200,279.000 319.200 C 278.670 319.200,278.400 318.924,278.400 318.587 C 278.400 318.251,278.085 317.859,277.700 317.718 C 277.315 317.576,276.856 317.222,276.680 316.930 C 276.504 316.639,276.009 316.400,275.580 316.400 C 275.151 316.400,274.800 316.130,274.800 315.800 C 274.800 315.470,274.530 315.200,274.200 315.200 C 273.870 315.200,273.600 314.926,273.600 314.590 C 273.600 314.255,273.150 313.809,272.600 313.600 C 272.050 313.391,271.600 313.035,271.600 312.810 C 271.600 312.584,271.330 312.400,271.000 312.400 C 270.670 312.400,270.400 312.130,270.400 311.800 C 270.400 311.467,270.044 311.200,269.600 311.200 C 269.067 311.200,268.800 310.933,268.800 310.400 C 268.800 309.960,268.639 309.600,268.441 309.600 C 268.053 309.600,266.004 307.951,264.587 306.500 C 264.104 306.005,263.504 305.600,263.254 305.600 C 263.004 305.600,262.800 305.330,262.800 305.000 C 262.800 304.670,262.549 304.400,262.243 304.400 C 261.936 304.400,261.582 304.130,261.455 303.800 C 261.329 303.470,260.859 303.200,260.413 303.200 C 259.867 303.200,259.600 302.937,259.600 302.400 C 259.600 301.956,259.333 301.600,259.000 301.600 C 258.670 301.600,258.400 301.330,258.400 301.000 C 258.400 300.667,258.044 300.400,257.600 300.400 C 257.156 300.400,256.800 300.133,256.800 299.800 C 256.800 299.470,256.530 299.200,256.200 299.200 C 255.870 299.200,255.600 298.964,255.600 298.675 C 255.600 298.112,253.505 296.400,252.816 296.400 C 252.587 296.400,252.400 296.130,252.400 295.800 C 252.400 295.467,252.044 295.200,251.600 295.200 C 251.067 295.200,250.800 294.933,250.800 294.400 C 250.800 293.956,250.533 293.600,250.200 293.600 C 249.870 293.600,249.600 293.416,249.600 293.190 C 249.600 292.965,249.150 292.609,248.600 292.400 C 248.050 292.191,247.600 291.835,247.600 291.610 C 247.600 291.384,247.351 291.200,247.047 291.200 C 246.742 291.200,246.399 290.840,246.284 290.400 C 246.169 289.960,245.788 289.600,245.437 289.600 C 245.087 289.600,244.800 289.330,244.800 289.000 C 244.800 288.670,244.530 288.400,244.200 288.400 C 243.870 288.400,243.600 288.130,243.600 287.800 C 243.600 287.470,243.414 287.200,243.188 287.200 C 242.961 287.200,242.197 286.570,241.490 285.800 C 240.784 285.030,239.889 284.400,239.503 284.400 C 239.116 284.400,238.800 284.130,238.800 283.800 C 238.800 283.470,238.530 283.200,238.200 283.200 C 237.870 283.200,237.600 282.964,237.600 282.675 C 237.600 282.112,235.505 280.400,234.816 280.400 C 234.587 280.400,234.400 280.130,234.400 279.800 C 234.400 279.467,234.044 279.200,233.600 279.200 C 233.067 279.200,232.800 278.933,232.800 278.400 C 232.800 277.956,232.533 277.600,232.200 277.600 C 231.870 277.600,231.600 277.330,231.600 277.000 C 231.600 276.670,231.349 276.400,231.043 276.400 C 230.736 276.400,230.382 276.130,230.255 275.800 C 230.129 275.470,229.762 275.200,229.440 275.200 C 229.117 275.200,228.740 274.840,228.600 274.400 C 228.460 273.960,228.083 273.600,227.760 273.600 C 227.438 273.600,227.071 273.330,226.945 273.000 C 226.818 272.670,226.464 272.400,226.157 272.400 C 225.851 272.400,225.600 272.130,225.600 271.800 C 225.600 271.470,225.336 271.200,225.014 271.200 C 224.692 271.200,224.235 270.840,224.000 270.400 C 223.765 269.960,223.308 269.600,222.986 269.600 C 222.664 269.600,222.400 269.330,222.400 269.000 C 222.400 268.667,222.044 268.400,221.600 268.400 C 221.156 268.400,220.800 268.133,220.800 267.800 C 220.800 267.470,220.530 267.200,220.200 267.200 C 219.870 267.200,219.600 266.996,219.600 266.746 C 219.600 266.205,217.727 264.400,217.167 264.400 C 216.951 264.400,216.671 264.130,216.545 263.800 C 216.418 263.470,215.974 263.200,215.557 263.200 C 215.141 263.200,214.800 262.926,214.800 262.590 C 214.800 262.255,214.350 261.809,213.800 261.600 C 213.250 261.391,212.800 261.035,212.800 260.810 C 212.800 260.584,212.530 260.400,212.200 260.400 C 211.870 260.400,211.600 260.130,211.600 259.800 C 211.600 259.470,211.373 259.200,211.096 259.200 C 210.819 259.200,210.368 258.840,210.093 258.400 C 208.986 256.627,205.600 257.555,205.600 259.631 C 205.600 260.220,205.330 260.926,205.000 261.200 C 204.476 261.635,204.400 265.669,204.400 293.049 L 204.400 324.400 200.000 324.400 L 195.600 324.400 195.600 303.049 C 195.600 284.558,195.520 281.631,195.000 281.200 C 194.489 280.776,194.400 278.762,194.400 267.631 C 194.400 257.998,194.274 254.434,193.920 254.080 C 193.194 253.354,192.067 253.504,191.507 254.400 C 191.232 254.840,190.691 255.200,190.304 255.200 C 189.917 255.200,189.600 255.470,189.600 255.800 C 189.600 256.130,189.330 256.400,189.000 256.400 C 188.670 256.400,188.400 256.670,188.400 257.000 C 188.400 257.330,188.130 257.600,187.800 257.600 C 187.467 257.600,187.200 257.956,187.200 258.400 C 187.200 258.933,186.933 259.200,186.400 259.200 C 185.956 259.200,185.600 259.467,185.600 259.800 C 185.600 260.130,185.330 260.400,185.000 260.400 C 184.670 260.400,184.400 260.670,184.400 261.000 C 184.400 261.330,184.173 261.600,183.896 261.600 C 183.619 261.600,183.168 261.960,182.893 262.400 C 182.618 262.840,182.125 263.200,181.797 263.200 C 181.468 263.200,181.200 263.470,181.200 263.800 C 181.200 264.130,181.000 264.400,180.756 264.400 C 180.142 264.400,178.415 266.090,178.407 266.700 C 178.403 266.975,178.157 267.200,177.860 267.200 C 177.562 267.200,176.366 268.100,175.200 269.200 C 174.034 270.300,172.928 271.200,172.740 271.200 C 172.553 271.200,172.400 271.470,172.400 271.800 C 172.400 272.130,172.130 272.400,171.800 272.400 C 171.470 272.400,171.200 272.670,171.200 273.000 C 171.200 273.330,170.913 273.600,170.563 273.600 C 170.212 273.600,169.831 273.960,169.716 274.400 C 169.601 274.840,169.258 275.200,168.953 275.200 C 168.649 275.200,168.400 275.470,168.400 275.800 C 168.400 276.130,168.130 276.400,167.800 276.400 C 167.470 276.400,167.200 276.670,167.200 277.000 C 167.200 277.330,166.852 277.600,166.427 277.600 C 166.002 277.600,165.540 277.960,165.400 278.400 C 165.260 278.840,164.883 279.200,164.560 279.200 C 164.238 279.200,163.871 279.470,163.745 279.800 C 163.618 280.130,163.264 280.400,162.957 280.400 C 162.651 280.400,162.400 280.670,162.400 281.000 C 162.400 281.330,162.130 281.600,161.800 281.600 C 161.467 281.600,161.200 281.956,161.200 282.400 C 161.200 282.933,160.933 283.200,160.400 283.200 C 159.960 283.200,159.600 283.356,159.600 283.546 C 159.600 283.736,158.880 284.390,158.000 285.000 C 157.120 285.610,156.400 286.354,156.400 286.654 C 156.400 286.954,156.130 287.200,155.800 287.200 C 155.470 287.200,155.200 287.470,155.200 287.800 C 155.200 288.130,154.924 288.400,154.587 288.400 C 154.251 288.400,153.871 288.670,153.745 289.000 C 153.618 289.330,153.264 289.600,152.957 289.600 C 152.651 289.600,152.400 289.960,152.400 290.400 C 152.400 290.844,152.133 291.200,151.800 291.200 C 151.470 291.200,151.200 291.470,151.200 291.800 C 151.200 292.133,150.844 292.400,150.400 292.400 C 149.956 292.400,149.600 292.667,149.600 293.000 C 149.600 293.330,149.336 293.600,149.014 293.600 C 148.692 293.600,148.235 293.960,148.000 294.400 C 147.765 294.840,147.308 295.200,146.986 295.200 C 146.664 295.200,146.400 295.470,146.400 295.800 C 146.400 296.130,146.130 296.400,145.800 296.400 C 145.470 296.400,145.200 296.670,145.200 297.000 C 145.200 297.330,144.996 297.600,144.746 297.600 C 144.496 297.600,143.901 298.005,143.424 298.500 C 142.947 298.995,141.801 300.017,140.878 300.771 C 139.955 301.525,139.200 302.380,139.200 302.671 C 139.200 302.962,138.840 303.200,138.400 303.200 C 137.956 303.200,137.600 303.467,137.600 303.800 C 137.600 304.130,137.330 304.400,137.000 304.400 C 136.670 304.400,136.400 304.670,136.400 305.000 C 136.400 305.330,136.130 305.600,135.800 305.600 C 135.467 305.600,135.200 305.956,135.200 306.400 C 135.200 306.933,134.933 307.200,134.400 307.200 C 133.956 307.200,133.600 307.467,133.600 307.800 C 133.600 308.130,133.339 308.400,133.021 308.400 C 132.316 308.400,130.400 310.115,130.400 310.746 C 130.400 310.996,130.130 311.200,129.800 311.200 C 129.470 311.200,129.200 311.470,129.200 311.800 C 129.200 312.130,128.884 312.400,128.497 312.400 C 128.111 312.400,127.216 313.030,126.510 313.800 C 125.803 314.570,125.039 315.200,124.812 315.200 C 124.586 315.200,124.400 315.470,124.400 315.800 C 124.400 316.130,124.130 316.400,123.800 316.400 C 123.470 316.400,123.200 316.670,123.200 317.000 C 123.200 317.330,122.913 317.600,122.563 317.600 C 122.212 317.600,121.831 317.960,121.716 318.400 C 121.601 318.840,121.258 319.200,120.953 319.200 C 120.649 319.200,120.400 319.384,120.400 319.610 C 120.400 319.835,119.950 320.191,119.400 320.400 C 118.850 320.609,118.400 320.965,118.400 321.190 C 118.400 321.416,118.130 321.600,117.800 321.600 C 117.460 321.600,117.200 321.959,117.200 322.429 C 117.200 323.004,116.985 323.217,116.500 323.124 C 115.841 322.997,115.788 320.904,115.600 287.795 L 115.400 252.600 98.100 252.496 C 82.161 252.400,79.827 252.248,81.200 251.400 C 81.753 251.058,81.753 136.942,81.200 136.600 C 79.820 135.747,81.913 135.600,95.400 135.600 C 104.867 135.600,110.000 135.459,110.000 135.200 C 110.000 134.980,110.686 134.800,111.524 134.800 C 114.387 134.800,114.290 135.246,114.513 121.063 C 114.648 112.540,114.861 108.179,115.157 107.883 C 115.471 107.569,115.608 100.249,115.628 82.820 C 115.644 69.279,115.811 57.840,116.000 57.400 C 116.192 56.952,116.356 56.844,116.372 57.154 C 116.404 57.781,118.234 59.600,118.833 59.600 C 119.049 59.600,119.329 59.870,119.455 60.200 C 119.582 60.530,120.026 60.800,120.443 60.800 C 120.859 60.800,121.200 61.036,121.200 61.325 C 121.200 61.888,123.295 63.600,123.984 63.600 C 124.213 63.600,124.400 63.870,124.400 64.200 C 124.400 64.530,124.670 64.800,125.000 64.800 C 125.330 64.800,125.600 65.087,125.600 65.437 C 125.600 65.788,125.960 66.169,126.400 66.284 C 126.840 66.399,127.200 66.742,127.200 67.047 C 127.200 67.351,127.470 67.600,127.800 67.600 C 128.130 67.600,128.400 67.870,128.400 68.200 C 128.400 68.530,128.574 68.800,128.787 68.800 C 128.999 68.800,129.803 69.430,130.573 70.200 C 131.343 70.970,132.249 71.600,132.587 71.600 C 132.924 71.600,133.200 71.870,133.200 72.200 C 133.200 72.530,133.470 72.800,133.800 72.800 C 134.130 72.800,134.400 73.074,134.400 73.410 C 134.400 73.745,134.850 74.191,135.400 74.400 C 135.950 74.609,136.400 74.965,136.400 75.190 C 136.400 75.416,136.670 75.600,137.000 75.600 C 137.330 75.600,137.600 75.870,137.600 76.200 C 137.600 76.533,137.956 76.800,138.400 76.800 C 138.933 76.800,139.200 77.067,139.200 77.600 C 139.200 78.044,139.467 78.400,139.800 78.400 C 140.130 78.400,140.400 78.670,140.400 79.000 C 140.400 79.330,140.651 79.600,140.957 79.600 C 141.264 79.600,141.618 79.870,141.745 80.200 C 141.871 80.530,142.251 80.800,142.587 80.800 C 142.924 80.800,143.200 81.046,143.200 81.346 C 143.200 81.646,143.920 82.390,144.800 83.000 C 145.680 83.610,146.400 84.264,146.400 84.454 C 146.400 84.644,146.670 84.800,147.000 84.800 C 147.330 84.800,147.600 85.076,147.600 85.413 C 147.600 85.749,147.901 86.141,148.269 86.282 C 148.638 86.423,149.255 86.823,149.641 87.169 C 151.047 88.433,151.575 88.800,151.983 88.800 C 152.212 88.800,152.400 89.160,152.400 89.600 C 152.400 90.044,152.667 90.400,153.000 90.400 C 153.330 90.400,153.600 90.670,153.600 91.000 C 153.600 91.333,153.956 91.600,154.400 91.600 C 154.844 91.600,155.200 91.867,155.200 92.200 C 155.200 92.530,155.470 92.800,155.800 92.800 C 156.130 92.800,156.400 93.000,156.400 93.244 C 156.400 93.754,158.045 95.583,158.513 95.593 C 158.686 95.597,159.457 96.230,160.227 97.000 C 160.997 97.770,161.801 98.400,162.013 98.400 C 162.226 98.400,162.400 98.670,162.400 99.000 C 162.400 99.330,162.651 99.600,162.957 99.600 C 163.264 99.600,163.618 99.870,163.745 100.200 C 163.871 100.530,164.251 100.800,164.587 100.800 C 164.924 100.800,165.200 101.074,165.200 101.410 C 165.200 101.745,165.650 102.191,166.200 102.400 C 166.750 102.609,167.200 102.965,167.200 103.190 C 167.200 103.416,167.470 103.600,167.800 103.600 C 168.130 103.600,168.400 103.870,168.400 104.200 C 168.400 104.530,168.670 104.800,169.000 104.800 C 169.330 104.800,169.600 105.087,169.600 105.437 C 169.600 105.788,169.960 106.169,170.400 106.284 C 170.840 106.399,171.200 106.742,171.200 107.047 C 171.200 107.351,171.470 107.600,171.800 107.600 C 172.130 107.600,172.400 107.870,172.400 108.200 C 172.400 108.530,172.553 108.800,172.740 108.800 C 172.928 108.800,174.034 109.700,175.200 110.800 C 176.366 111.900,177.562 112.800,177.860 112.800 C 178.157 112.800,178.400 113.160,178.400 113.600 C 178.400 114.040,178.651 114.400,178.957 114.400 C 179.264 114.400,179.618 114.670,179.745 115.000 C 179.871 115.330,180.251 115.600,180.587 115.600 C 180.924 115.600,181.200 115.870,181.200 116.200 C 181.200 116.530,181.468 116.800,181.797 116.800 C 182.125 116.800,182.618 117.160,182.893 117.600 C 183.168 118.040,183.619 118.400,183.896 118.400 C 184.173 118.400,184.400 118.670,184.400 119.000 C 184.400 119.330,184.670 119.600,185.000 119.600 C 185.330 119.600,185.600 119.870,185.600 120.200 C 185.600 120.533,185.956 120.800,186.400 120.800 C 186.933 120.800,187.200 121.067,187.200 121.600 C 187.200 122.044,187.467 122.400,187.800 122.400 C 188.130 122.400,188.400 122.670,188.400 123.000 C 188.400 123.330,188.670 123.600,189.000 123.600 C 189.330 123.600,189.600 123.870,189.600 124.200 C 189.600 124.530,189.917 124.800,190.304 124.800 C 190.691 124.800,191.232 125.160,191.507 125.600 C 192.067 126.496,193.194 126.646,193.920 125.920 C 194.273 125.567,194.400 122.053,194.400 112.596 C 194.400 101.923,194.499 99.622,194.987 98.976 C 195.486 98.317,195.576 94.995,195.587 76.900 L 195.600 55.600 200.000 55.600 L 204.400 55.600 204.413 87.300 M124.429 100.900 C 124.445 112.175,124.629 122.390,124.837 123.600 C 125.046 124.810,125.325 127.726,125.459 130.079 L 125.701 134.359 126.833 134.607 C 127.455 134.744,129.395 134.807,131.144 134.747 C 133.161 134.679,134.533 134.813,134.896 135.113 C 135.319 135.465,141.739 135.615,159.712 135.694 L 183.957 135.800 183.711 134.004 C 183.435 131.989,182.849 131.200,181.629 131.200 C 181.067 131.200,180.800 130.943,180.800 130.400 C 180.800 129.956,180.533 129.600,180.200 129.600 C 179.870 129.600,179.600 129.330,179.600 129.000 C 179.600 128.670,179.330 128.400,179.000 128.400 C 178.670 128.400,178.400 128.130,178.400 127.800 C 178.400 127.467,178.044 127.200,177.600 127.200 C 177.067 127.200,176.800 126.933,176.800 126.400 C 176.800 125.956,176.533 125.600,176.200 125.600 C 175.870 125.600,175.600 125.330,175.600 125.000 C 175.600 124.670,175.349 124.400,175.043 124.400 C 174.736 124.400,174.382 124.130,174.255 123.800 C 174.129 123.470,173.749 123.200,173.413 123.200 C 173.076 123.200,172.800 122.962,172.800 122.671 C 172.800 122.380,172.060 121.525,171.155 120.771 C 170.250 120.017,168.809 118.725,167.954 117.900 C 167.099 117.075,166.219 116.400,166.000 116.400 C 165.780 116.400,165.600 116.130,165.600 115.800 C 165.600 115.470,165.330 115.200,165.000 115.200 C 164.670 115.200,164.400 114.913,164.400 114.563 C 164.400 114.212,164.040 113.831,163.600 113.716 C 163.160 113.601,162.800 113.343,162.800 113.143 C 162.800 112.944,162.350 112.609,161.800 112.400 C 161.250 112.191,160.800 111.835,160.800 111.610 C 160.800 111.384,160.530 111.200,160.200 111.200 C 159.867 111.200,159.600 110.844,159.600 110.400 C 159.600 109.956,159.333 109.600,159.000 109.600 C 158.670 109.600,158.400 109.330,158.400 109.000 C 158.400 108.667,158.044 108.400,157.600 108.400 C 157.156 108.400,156.800 108.133,156.800 107.800 C 156.800 107.470,156.530 107.200,156.200 107.200 C 155.870 107.200,155.597 106.975,155.593 106.700 C 155.586 106.192,153.901 104.400,153.430 104.400 C 153.289 104.400,152.543 103.770,151.773 103.000 C 151.003 102.230,150.199 101.600,149.987 101.600 C 149.774 101.600,149.600 101.330,149.600 101.000 C 149.600 100.670,149.349 100.400,149.043 100.400 C 148.736 100.400,148.382 100.130,148.255 99.800 C 148.129 99.470,147.762 99.200,147.440 99.200 C 147.117 99.200,146.740 98.840,146.600 98.400 C 146.460 97.960,145.998 97.600,145.573 97.600 C 145.148 97.600,144.800 97.330,144.800 97.000 C 144.800 96.670,144.530 96.400,144.200 96.400 C 143.870 96.400,143.600 96.130,143.600 95.800 C 143.600 95.470,143.351 95.200,143.047 95.200 C 142.742 95.200,142.399 94.840,142.284 94.400 C 142.169 93.960,141.788 93.600,141.437 93.600 C 141.087 93.600,140.800 93.330,140.800 93.000 C 140.800 92.670,140.614 92.400,140.387 92.400 C 140.159 92.400,139.343 91.770,138.573 91.000 C 137.803 90.230,136.999 89.600,136.787 89.600 C 136.574 89.600,136.400 89.330,136.400 89.000 C 136.400 88.667,136.044 88.400,135.600 88.400 C 135.156 88.400,134.800 88.133,134.800 87.800 C 134.800 87.470,134.530 87.200,134.200 87.200 C 133.870 87.200,133.600 86.933,133.600 86.608 C 133.600 86.282,133.150 85.902,132.600 85.764 C 132.050 85.626,131.600 85.263,131.600 84.957 C 131.600 84.650,131.330 84.400,131.000 84.400 C 130.670 84.400,130.400 84.130,130.400 83.800 C 130.400 83.467,130.044 83.200,129.600 83.200 C 129.067 83.200,128.800 82.933,128.800 82.400 C 128.800 81.956,128.533 81.600,128.200 81.600 C 127.870 81.600,127.600 81.330,127.600 81.000 C 127.600 80.567,127.156 80.400,126.000 80.400 L 124.400 80.400 124.429 100.900 M277.354 80.976 C 277.222 81.319,276.847 81.600,276.520 81.600 C 276.193 81.600,275.831 81.960,275.716 82.400 C 275.601 82.840,275.258 83.200,274.953 83.200 C 274.649 83.200,274.400 83.384,274.400 83.610 C 274.400 83.835,273.950 84.191,273.400 84.400 C 272.850 84.609,272.400 84.965,272.400 85.190 C 272.400 85.416,272.130 85.600,271.800 85.600 C 271.467 85.600,271.200 85.956,271.200 86.400 C 271.200 86.933,270.933 87.200,270.400 87.200 C 269.956 87.200,269.600 87.467,269.600 87.800 C 269.600 88.130,269.413 88.400,269.184 88.400 C 268.556 88.400,266.400 90.089,266.400 90.580 C 266.400 90.994,265.366 91.676,263.900 92.229 C 263.515 92.374,263.200 92.721,263.200 93.000 C 263.200 93.279,262.840 93.601,262.400 93.716 C 261.960 93.831,261.600 94.212,261.600 94.563 C 261.600 94.913,261.330 95.200,261.000 95.200 C 260.670 95.200,260.400 95.427,260.400 95.705 C 260.400 96.185,259.436 96.850,257.900 97.429 C 257.515 97.574,257.200 98.032,257.200 98.447 C 257.200 98.937,256.917 99.200,256.387 99.200 C 255.941 99.200,255.471 99.470,255.345 99.800 C 255.218 100.130,254.858 100.400,254.545 100.400 C 254.231 100.400,253.871 100.670,253.745 101.000 C 253.618 101.330,253.264 101.600,252.957 101.600 C 252.651 101.600,252.400 101.960,252.400 102.400 C 252.400 102.844,252.133 103.200,251.800 103.200 C 251.470 103.200,251.200 103.470,251.200 103.800 C 251.200 104.136,250.843 104.400,250.387 104.400 C 249.941 104.400,249.478 104.652,249.360 104.961 C 249.241 105.269,248.797 105.612,248.372 105.723 C 247.948 105.834,247.600 106.169,247.600 106.468 C 247.600 106.981,246.667 107.638,245.100 108.229 C 244.715 108.374,244.400 108.742,244.400 109.047 C 244.400 109.351,244.130 109.600,243.800 109.600 C 243.467 109.600,243.200 109.956,243.200 110.400 C 243.200 110.933,242.933 111.200,242.400 111.200 C 241.956 111.200,241.600 111.467,241.600 111.800 C 241.600 112.136,241.243 112.400,240.787 112.400 C 240.341 112.400,239.871 112.670,239.745 113.000 C 239.618 113.330,239.264 113.600,238.957 113.600 C 238.651 113.600,238.400 113.960,238.400 114.400 C 238.400 114.937,238.133 115.200,237.587 115.200 C 237.141 115.200,236.671 115.470,236.545 115.800 C 236.418 116.130,236.064 116.400,235.757 116.400 C 235.451 116.400,235.200 116.649,235.200 116.953 C 235.200 117.258,234.840 117.601,234.400 117.716 C 233.960 117.831,233.600 118.212,233.600 118.563 C 233.600 118.913,233.349 119.200,233.043 119.200 C 232.736 119.200,232.382 119.470,232.255 119.800 C 232.129 120.130,231.659 120.400,231.213 120.400 C 230.757 120.400,230.400 120.664,230.400 121.000 C 230.400 121.330,230.173 121.600,229.896 121.600 C 229.619 121.600,229.168 121.960,228.893 122.400 C 228.618 122.840,228.125 123.200,227.797 123.200 C 227.468 123.200,227.200 123.470,227.200 123.800 C 227.200 124.130,226.924 124.400,226.587 124.400 C 226.251 124.400,225.871 124.670,225.745 125.000 C 225.618 125.330,225.264 125.600,224.957 125.600 C 224.651 125.600,224.400 125.917,224.400 126.305 C 224.400 126.962,223.574 127.598,221.900 128.229 C 221.515 128.374,221.200 128.742,221.200 129.047 C 221.200 129.351,220.823 129.600,220.363 129.600 C 219.862 129.600,219.441 129.921,219.316 130.400 C 219.200 130.843,218.770 131.200,218.353 131.200 C 217.422 131.200,217.282 133.813,218.151 135.000 C 218.681 135.725,218.781 135.728,220.813 135.071 C 222.714 134.458,223.017 134.450,223.852 134.997 C 224.664 135.529,228.275 135.593,252.690 135.503 L 280.600 135.400 280.600 108.000 L 280.600 80.600 279.097 80.476 C 278.021 80.387,277.525 80.529,277.354 80.976 M92.676 144.657 C 92.524 144.809,92.400 166.688,92.400 193.277 L 92.400 241.620 93.426 242.010 C 95.264 242.709,113.668 242.508,114.711 241.777 C 115.597 241.157,115.600 241.108,115.600 228.977 C 115.600 218.420,115.680 216.800,116.200 216.800 C 116.530 216.800,116.800 216.530,116.800 216.200 C 116.800 215.867,117.156 215.600,117.600 215.600 C 118.044 215.600,118.400 215.333,118.400 215.000 C 118.400 214.670,118.670 214.400,119.000 214.400 C 119.333 214.400,119.600 214.044,119.600 213.600 C 119.600 213.156,119.867 212.800,120.200 212.800 C 120.530 212.800,120.800 212.530,120.800 212.200 C 120.800 211.867,121.156 211.600,121.600 211.600 C 122.044 211.600,122.400 211.333,122.400 211.000 C 122.400 210.670,122.670 210.400,123.000 210.400 C 123.333 210.400,123.600 210.044,123.600 209.600 C 123.600 209.156,123.867 208.800,124.200 208.800 C 124.530 208.800,124.800 208.530,124.800 208.200 C 124.800 207.867,125.156 207.600,125.600 207.600 C 126.044 207.600,126.400 207.333,126.400 207.000 C 126.400 206.670,126.670 206.400,127.000 206.400 C 127.333 206.400,127.600 206.044,127.600 205.600 C 127.600 205.156,127.867 204.800,128.200 204.800 C 128.530 204.800,128.800 204.530,128.800 204.200 C 128.800 203.867,129.156 203.600,129.600 203.600 C 130.044 203.600,130.400 203.333,130.400 203.000 C 130.400 202.670,130.670 202.400,131.000 202.400 C 131.333 202.400,131.600 202.044,131.600 201.600 C 131.600 201.156,131.867 200.800,132.200 200.800 C 132.530 200.800,132.800 200.530,132.800 200.200 C 132.800 199.867,133.156 199.600,133.600 199.600 C 134.044 199.600,134.400 199.333,134.400 199.000 C 134.400 198.670,134.670 198.400,135.000 198.400 C 135.333 198.400,135.600 198.044,135.600 197.600 C 135.600 197.156,135.867 196.800,136.200 196.800 C 136.530 196.800,136.800 196.530,136.800 196.200 C 136.800 195.867,137.156 195.600,137.600 195.600 C 138.044 195.600,138.400 195.333,138.400 195.000 C 138.400 194.670,138.670 194.400,139.000 194.400 C 139.333 194.400,139.600 194.044,139.600 193.600 C 139.600 193.156,139.867 192.800,140.200 192.800 C 140.530 192.800,140.800 192.530,140.800 192.200 C 140.800 191.867,141.156 191.600,141.600 191.600 C 142.044 191.600,142.400 191.333,142.400 191.000 C 142.400 190.670,142.670 190.400,143.000 190.400 C 143.333 190.400,143.600 190.044,143.600 189.600 C 143.600 189.156,143.867 188.800,144.200 188.800 C 144.530 188.800,144.800 188.530,144.800 188.200 C 144.800 187.867,145.156 187.600,145.600 187.600 C 146.044 187.600,146.400 187.333,146.400 187.000 C 146.400 186.670,146.670 186.400,147.000 186.400 C 147.333 186.400,147.600 186.044,147.600 185.600 C 147.600 185.156,147.867 184.800,148.200 184.800 C 148.530 184.800,148.800 184.530,148.800 184.200 C 148.800 183.867,149.156 183.600,149.600 183.600 C 150.044 183.600,150.400 183.333,150.400 183.000 C 150.400 182.670,150.670 182.400,151.000 182.400 C 151.333 182.400,151.600 182.044,151.600 181.600 C 151.600 181.156,151.867 180.800,152.200 180.800 C 152.530 180.800,152.800 180.530,152.800 180.200 C 152.800 179.867,153.156 179.600,153.600 179.600 C 154.044 179.600,154.400 179.333,154.400 179.000 C 154.400 178.670,154.670 178.400,155.000 178.400 C 155.333 178.400,155.600 178.044,155.600 177.600 C 155.600 177.156,155.867 176.800,156.200 176.800 C 156.530 176.800,156.800 176.530,156.800 176.200 C 156.800 175.867,157.156 175.600,157.600 175.600 C 158.044 175.600,158.400 175.333,158.400 175.000 C 158.400 174.670,158.670 174.400,159.000 174.400 C 159.333 174.400,159.600 174.044,159.600 173.600 C 159.600 173.156,159.867 172.800,160.200 172.800 C 160.530 172.800,160.800 172.530,160.800 172.200 C 160.800 171.867,161.156 171.600,161.600 171.600 C 162.044 171.600,162.400 171.333,162.400 171.000 C 162.400 170.670,162.670 170.400,163.000 170.400 C 163.333 170.400,163.600 170.044,163.600 169.600 C 163.600 169.156,163.867 168.800,164.200 168.800 C 164.530 168.800,164.800 168.530,164.800 168.200 C 164.800 167.867,165.156 167.600,165.600 167.600 C 166.044 167.600,166.400 167.333,166.400 167.000 C 166.400 166.670,166.670 166.400,167.000 166.400 C 167.333 166.400,167.600 166.044,167.600 165.600 C 167.600 165.156,167.867 164.800,168.200 164.800 C 168.530 164.800,168.800 164.530,168.800 164.200 C 168.800 163.867,169.156 163.600,169.600 163.600 C 170.040 163.600,170.400 163.349,170.400 163.043 C 170.400 162.736,170.670 162.382,171.000 162.255 C 171.330 162.129,171.600 161.749,171.600 161.413 C 171.600 161.076,171.870 160.800,172.200 160.800 C 172.530 160.800,172.800 160.530,172.800 160.200 C 172.800 159.870,173.025 159.597,173.300 159.593 C 173.910 159.585,175.600 157.858,175.600 157.244 C 175.600 157.000,175.870 156.800,176.200 156.800 C 176.530 156.800,176.800 156.530,176.800 156.200 C 176.800 155.870,177.070 155.600,177.400 155.600 C 177.730 155.600,178.001 155.465,178.002 155.300 C 178.003 155.135,178.543 154.425,179.202 153.722 C 179.861 153.019,180.400 152.254,180.400 152.022 C 180.400 151.790,180.670 151.600,181.000 151.600 C 181.330 151.600,181.600 151.359,181.600 151.064 C 181.600 150.770,182.050 150.323,182.600 150.073 C 183.413 149.702,183.600 149.331,183.600 148.089 C 183.600 145.746,183.248 145.600,177.600 145.600 C 174.101 145.600,172.407 145.447,172.060 145.100 C 171.512 144.552,93.218 144.115,92.676 144.657 M228.062 144.900 C 227.733 145.229,225.693 145.468,222.082 145.600 L 216.600 145.800 216.481 147.836 C 216.368 149.771,216.432 149.919,217.779 150.836 C 218.557 151.366,219.196 152.025,219.197 152.300 C 219.199 152.575,219.470 152.800,219.800 152.800 C 220.130 152.800,220.403 153.025,220.407 153.300 C 220.415 153.910,222.142 155.600,222.756 155.600 C 223.000 155.600,223.200 155.870,223.200 156.200 C 223.200 156.530,223.470 156.800,223.800 156.800 C 224.133 156.800,224.400 157.156,224.400 157.600 C 224.400 158.044,224.667 158.400,225.000 158.400 C 225.330 158.400,225.600 158.670,225.600 159.000 C 225.600 159.333,225.956 159.600,226.400 159.600 C 226.844 159.600,227.200 159.867,227.200 160.200 C 227.200 160.530,227.470 160.800,227.800 160.800 C 228.133 160.800,228.400 161.156,228.400 161.600 C 228.400 162.044,228.667 162.400,229.000 162.400 C 229.330 162.400,229.600 162.670,229.600 163.000 C 229.600 163.333,229.956 163.600,230.400 163.600 C 230.844 163.600,231.200 163.867,231.200 164.200 C 231.200 164.530,231.470 164.800,231.800 164.800 C 232.130 164.800,232.400 165.044,232.400 165.342 C 232.400 165.640,234.380 167.884,236.800 170.329 C 239.220 172.773,241.200 174.959,241.200 175.186 C 241.200 175.414,241.470 175.600,241.800 175.600 C 242.130 175.600,242.400 175.870,242.400 176.200 C 242.400 176.530,242.566 176.800,242.768 176.800 C 243.260 176.800,246.400 179.926,246.400 180.415 C 246.400 180.627,246.572 180.800,246.782 180.800 C 247.278 180.800,249.200 182.722,249.200 183.218 C 249.200 183.428,249.373 183.600,249.585 183.600 C 250.074 183.600,253.200 186.740,253.200 187.232 C 253.200 187.434,253.470 187.600,253.800 187.600 C 254.130 187.600,254.400 187.870,254.400 188.200 C 254.400 188.530,254.565 188.800,254.768 188.800 C 255.248 188.800,261.200 194.752,261.200 195.232 C 261.200 195.435,261.470 195.600,261.800 195.600 C 262.130 195.600,262.400 195.870,262.400 196.200 C 262.400 196.530,262.572 196.800,262.782 196.800 C 263.278 196.800,265.200 198.722,265.200 199.218 C 265.200 199.428,265.470 199.600,265.800 199.600 C 266.130 199.600,266.400 199.870,266.400 200.200 C 266.400 200.530,266.565 200.800,266.768 200.800 C 267.248 200.800,273.200 206.752,273.200 207.232 C 273.200 207.435,273.470 207.600,273.800 207.600 C 274.130 207.600,274.400 207.870,274.400 208.200 C 274.400 208.530,274.572 208.800,274.782 208.800 C 275.278 208.800,277.200 210.722,277.200 211.218 C 277.200 211.428,277.470 211.600,277.800 211.600 C 278.130 211.600,278.400 211.870,278.400 212.200 C 278.400 212.530,278.572 212.800,278.782 212.800 C 278.993 212.800,280.343 213.995,281.782 215.457 L 284.400 218.113 284.400 229.843 C 284.400 241.030,284.436 241.591,285.174 241.986 C 286.831 242.873,305.348 242.513,306.546 241.571 L 307.600 240.742 307.600 193.051 C 307.600 156.491,307.488 145.248,307.120 144.880 C 306.406 144.166,228.774 144.186,228.062 144.900 M190.300 157.329 C 189.695 157.825,189.200 158.448,189.200 158.715 C 189.200 158.982,188.840 159.200,188.400 159.200 C 187.956 159.200,187.600 159.467,187.600 159.800 C 187.600 160.130,187.330 160.400,187.000 160.400 C 186.670 160.400,186.400 160.670,186.400 161.000 C 186.400 161.330,186.226 161.600,186.013 161.600 C 185.801 161.600,184.997 162.230,184.227 163.000 C 183.457 163.770,182.739 164.400,182.632 164.400 C 182.274 164.400,180.400 166.431,180.400 166.818 C 180.400 167.028,180.130 167.200,179.800 167.200 C 179.470 167.200,179.200 167.470,179.200 167.800 C 179.200 168.130,178.975 168.403,178.700 168.407 C 178.090 168.415,176.400 170.142,176.400 170.756 C 176.400 171.000,176.130 171.200,175.800 171.200 C 175.470 171.200,175.200 171.470,175.200 171.800 C 175.200 172.130,174.975 172.403,174.700 172.407 C 174.090 172.415,172.400 174.142,172.400 174.756 C 172.400 175.000,172.130 175.200,171.800 175.200 C 171.470 175.200,171.200 175.470,171.200 175.800 C 171.200 176.133,170.844 176.400,170.400 176.400 C 169.956 176.400,169.600 176.667,169.600 177.000 C 169.600 177.330,169.330 177.600,169.000 177.600 C 168.667 177.600,168.400 177.956,168.400 178.400 C 168.400 178.844,168.133 179.200,167.800 179.200 C 167.470 179.200,167.200 179.470,167.200 179.800 C 167.200 180.133,166.844 180.400,166.400 180.400 C 165.956 180.400,165.600 180.667,165.600 181.000 C 165.600 181.330,165.330 181.600,165.000 181.600 C 164.667 181.600,164.400 181.956,164.400 182.400 C 164.400 182.844,164.133 183.200,163.800 183.200 C 163.470 183.200,163.200 183.470,163.200 183.800 C 163.200 184.133,162.844 184.400,162.400 184.400 C 161.956 184.400,161.600 184.667,161.600 185.000 C 161.600 185.330,161.330 185.600,161.000 185.600 C 160.667 185.600,160.400 185.956,160.400 186.400 C 160.400 186.844,160.133 187.200,159.800 187.200 C 159.470 187.200,159.200 187.470,159.200 187.800 C 159.200 188.133,158.844 188.400,158.400 188.400 C 157.956 188.400,157.600 188.667,157.600 189.000 C 157.600 189.330,157.330 189.600,157.000 189.600 C 156.667 189.600,156.400 189.956,156.400 190.400 C 156.400 190.844,156.133 191.200,155.800 191.200 C 155.470 191.200,155.200 191.470,155.200 191.800 C 155.200 192.133,154.844 192.400,154.400 192.400 C 153.956 192.400,153.600 192.667,153.600 193.000 C 153.600 193.330,153.330 193.600,153.000 193.600 C 152.667 193.600,152.400 193.956,152.400 194.400 C 152.400 194.844,152.133 195.200,151.800 195.200 C 151.470 195.200,151.200 195.470,151.200 195.800 C 151.200 196.133,150.844 196.400,150.400 196.400 C 149.956 196.400,149.600 196.667,149.600 197.000 C 149.600 197.330,149.330 197.600,149.000 197.600 C 148.667 197.600,148.400 197.956,148.400 198.400 C 148.400 198.844,148.133 199.200,147.800 199.200 C 147.470 199.200,147.200 199.470,147.200 199.800 C 147.200 200.133,146.844 200.400,146.400 200.400 C 145.956 200.400,145.600 200.667,145.600 201.000 C 145.600 201.330,145.330 201.600,145.000 201.600 C 144.667 201.600,144.400 201.956,144.400 202.400 C 144.400 202.844,144.133 203.200,143.800 203.200 C 143.470 203.200,143.200 203.470,143.200 203.800 C 143.200 204.133,142.844 204.400,142.400 204.400 C 141.956 204.400,141.600 204.667,141.600 205.000 C 141.600 205.330,141.330 205.600,141.000 205.600 C 140.667 205.600,140.400 205.956,140.400 206.400 C 140.400 206.844,140.133 207.200,139.800 207.200 C 139.470 207.200,139.200 207.470,139.200 207.800 C 139.200 208.133,138.844 208.400,138.400 208.400 C 137.960 208.400,137.600 208.651,137.600 208.957 C 137.600 209.264,137.330 209.618,137.000 209.745 C 136.670 209.871,136.400 210.251,136.400 210.587 C 136.400 210.924,136.130 211.200,135.800 211.200 C 135.470 211.200,135.200 211.470,135.200 211.800 C 135.200 212.130,134.975 212.403,134.700 212.407 C 134.090 212.415,132.400 214.142,132.400 214.756 C 132.400 215.000,132.130 215.200,131.800 215.200 C 131.470 215.200,131.200 215.470,131.200 215.800 C 131.200 216.130,130.975 216.403,130.700 216.407 C 130.090 216.415,128.400 218.142,128.400 218.756 C 128.400 219.000,128.130 219.200,127.800 219.200 C 127.470 219.200,127.200 219.470,127.200 219.800 C 127.200 220.133,126.844 220.400,126.400 220.400 C 125.960 220.400,125.600 220.651,125.600 220.957 C 125.600 221.264,125.315 221.624,124.968 221.757 C 124.120 222.082,124.250 287.210,125.100 288.060 C 125.714 288.674,125.803 296.628,125.200 297.000 C 124.527 297.416,124.755 298.748,125.574 299.186 C 126.692 299.784,127.989 299.694,128.255 299.000 C 128.382 298.670,128.724 298.400,129.016 298.400 C 129.307 298.400,129.660 298.040,129.800 297.600 C 129.940 297.160,130.272 296.800,130.538 296.800 C 130.804 296.800,131.467 296.295,132.011 295.678 C 132.555 295.062,133.315 294.437,133.700 294.291 C 134.085 294.145,134.400 293.749,134.400 293.413 C 134.400 293.076,134.670 292.800,135.000 292.800 C 135.330 292.800,135.600 292.530,135.600 292.200 C 135.600 291.870,135.870 291.600,136.200 291.600 C 136.530 291.600,136.800 291.330,136.800 291.000 C 136.800 290.670,137.087 290.400,137.437 290.400 C 137.788 290.400,138.169 290.040,138.284 289.600 C 138.399 289.160,138.723 288.800,139.004 288.800 C 139.285 288.800,139.618 288.530,139.745 288.200 C 139.871 287.870,140.206 287.597,140.487 287.593 C 141.107 287.585,142.800 285.865,142.800 285.244 C 142.800 285.000,143.160 284.800,143.600 284.800 C 144.044 284.800,144.400 284.533,144.400 284.200 C 144.400 283.870,144.625 283.594,144.900 283.587 C 145.544 283.571,147.600 281.768,147.600 281.219 C 147.600 280.989,147.870 280.800,148.200 280.800 C 148.530 280.800,148.800 280.530,148.800 280.200 C 148.800 279.870,149.076 279.600,149.413 279.600 C 149.749 279.600,150.129 279.330,150.255 279.000 C 150.382 278.670,150.736 278.400,151.043 278.400 C 151.349 278.400,151.600 278.040,151.600 277.600 C 151.600 277.156,151.867 276.800,152.200 276.800 C 152.530 276.800,152.800 276.530,152.800 276.200 C 152.800 275.867,153.156 275.600,153.600 275.600 C 154.044 275.600,154.400 275.333,154.400 275.000 C 154.400 274.670,154.668 274.400,154.997 274.400 C 155.325 274.400,155.818 274.040,156.093 273.600 C 156.368 273.160,156.819 272.800,157.096 272.800 C 157.373 272.800,157.600 272.530,157.600 272.200 C 157.600 271.870,157.870 271.600,158.200 271.600 C 158.530 271.600,158.800 271.330,158.800 271.000 C 158.800 270.670,159.068 270.400,159.397 270.400 C 159.725 270.400,160.218 270.040,160.493 269.600 C 160.768 269.160,161.183 268.800,161.415 268.800 C 161.647 268.800,162.279 268.268,162.819 267.617 C 163.358 266.966,164.025 266.426,164.300 266.417 C 164.575 266.408,164.800 266.040,164.800 265.600 C 164.800 265.067,165.067 264.800,165.600 264.800 C 166.044 264.800,166.400 264.533,166.400 264.200 C 166.400 263.870,166.670 263.600,167.000 263.600 C 167.330 263.600,167.600 263.330,167.600 263.000 C 167.600 262.670,167.870 262.400,168.200 262.400 C 168.533 262.400,168.800 262.044,168.800 261.600 C 168.800 261.063,169.067 260.800,169.613 260.800 C 170.059 260.800,170.529 260.530,170.655 260.200 C 170.782 259.870,171.066 259.600,171.286 259.600 C 171.868 259.600,173.585 257.888,173.593 257.300 C 173.597 257.025,173.843 256.800,174.140 256.800 C 174.438 256.800,175.634 255.900,176.800 254.800 C 177.966 253.700,179.072 252.800,179.260 252.800 C 179.447 252.800,179.600 252.530,179.600 252.200 C 179.600 251.870,179.870 251.600,180.200 251.600 C 180.530 251.600,180.800 251.351,180.800 251.047 C 180.800 250.742,181.160 250.399,181.600 250.284 C 182.040 250.169,182.400 249.788,182.400 249.437 C 182.400 249.087,182.670 248.800,183.000 248.800 C 183.330 248.800,183.600 248.530,183.600 248.200 C 183.600 247.870,183.787 247.600,184.016 247.600 C 184.705 247.600,186.800 245.888,186.800 245.325 C 186.800 245.036,187.160 244.800,187.600 244.800 C 188.044 244.800,188.400 244.533,188.400 244.200 C 188.400 243.870,188.586 243.600,188.813 243.600 C 189.041 243.600,189.857 242.970,190.627 242.200 C 191.397 241.430,192.201 240.800,192.413 240.800 C 192.626 240.800,192.800 240.530,192.800 240.200 C 192.800 239.867,193.156 239.600,193.600 239.600 C 194.052 239.600,194.400 239.333,194.400 238.987 C 194.400 238.651,194.670 238.271,195.000 238.145 C 195.906 237.797,195.903 168.791,194.998 167.054 C 194.576 166.246,194.400 164.648,194.400 161.634 C 194.400 156.221,193.197 154.958,190.300 157.329 M205.832 157.300 C 205.732 157.795,205.560 159.006,205.451 159.991 C 205.341 160.977,205.060 161.847,204.826 161.925 C 204.073 162.176,204.243 240.800,204.997 240.800 C 205.325 240.800,205.818 241.160,206.093 241.600 C 206.368 242.040,206.800 242.400,207.053 242.400 C 207.307 242.400,207.618 242.670,207.745 243.000 C 207.871 243.330,208.231 243.600,208.545 243.600 C 208.858 243.600,209.218 243.870,209.345 244.200 C 209.471 244.530,209.941 244.800,210.387 244.800 C 210.933 244.800,211.200 245.063,211.200 245.600 C 211.200 246.044,211.467 246.400,211.800 246.400 C 212.130 246.400,212.400 246.670,212.400 247.000 C 212.400 247.330,212.670 247.600,213.000 247.600 C 213.330 247.600,213.600 247.870,213.600 248.200 C 213.600 248.533,213.956 248.800,214.400 248.800 C 214.840 248.800,215.200 249.036,215.200 249.325 C 215.200 249.888,217.295 251.600,217.984 251.600 C 218.213 251.600,218.400 251.870,218.400 252.200 C 218.400 252.530,218.574 252.800,218.787 252.800 C 218.999 252.800,219.803 253.430,220.573 254.200 C 221.343 254.970,222.249 255.600,222.587 255.600 C 222.924 255.600,223.200 255.870,223.200 256.200 C 223.200 256.530,223.470 256.800,223.800 256.800 C 224.133 256.800,224.400 257.156,224.400 257.600 C 224.400 258.040,224.651 258.400,224.957 258.400 C 225.264 258.400,225.618 258.670,225.745 259.000 C 225.871 259.330,226.251 259.600,226.587 259.600 C 226.924 259.600,227.200 259.870,227.200 260.200 C 227.200 260.530,227.468 260.800,227.797 260.800 C 228.125 260.800,228.618 261.160,228.893 261.600 C 229.168 262.040,229.619 262.400,229.896 262.400 C 230.173 262.400,230.400 262.670,230.400 263.000 C 230.400 263.330,230.670 263.600,231.000 263.600 C 231.330 263.600,231.600 263.784,231.600 264.010 C 231.600 264.235,232.050 264.591,232.600 264.800 C 233.150 265.009,233.600 265.455,233.600 265.790 C 233.600 266.133,233.950 266.400,234.400 266.400 C 234.844 266.400,235.200 266.667,235.200 267.000 C 235.200 267.330,235.470 267.600,235.800 267.600 C 236.130 267.600,236.400 267.870,236.400 268.200 C 236.400 268.530,236.670 268.800,237.000 268.800 C 237.330 268.800,237.600 269.076,237.600 269.413 C 237.600 269.749,237.901 270.141,238.269 270.282 C 238.638 270.423,239.255 270.823,239.641 271.169 C 241.047 272.433,241.575 272.800,241.983 272.800 C 242.212 272.800,242.400 273.004,242.400 273.254 C 242.400 273.885,244.316 275.600,245.021 275.600 C 245.339 275.600,245.600 275.870,245.600 276.200 C 245.600 276.533,245.956 276.800,246.400 276.800 C 246.933 276.800,247.200 277.067,247.200 277.600 C 247.200 278.044,247.467 278.400,247.800 278.400 C 248.130 278.400,248.400 278.670,248.400 279.000 C 248.400 279.330,248.651 279.600,248.957 279.600 C 249.264 279.600,249.618 279.870,249.745 280.200 C 249.871 280.530,250.251 280.800,250.587 280.800 C 250.924 280.800,251.200 281.074,251.200 281.410 C 251.200 281.745,251.650 282.191,252.200 282.400 C 252.750 282.609,253.200 282.965,253.200 283.190 C 253.200 283.416,253.470 283.600,253.800 283.600 C 254.130 283.600,254.400 283.870,254.400 284.200 C 254.400 284.530,254.627 284.800,254.904 284.800 C 255.181 284.800,255.632 285.160,255.907 285.600 C 256.182 286.040,256.675 286.400,257.003 286.400 C 257.332 286.400,257.600 286.670,257.600 287.000 C 257.600 287.333,257.956 287.600,258.400 287.600 C 258.844 287.600,259.200 287.867,259.200 288.200 C 259.200 288.530,259.470 288.800,259.800 288.800 C 260.130 288.800,260.400 289.000,260.400 289.244 C 260.400 289.836,262.080 291.584,262.657 291.593 C 262.909 291.597,263.218 291.870,263.345 292.200 C 263.471 292.530,263.941 292.800,264.387 292.800 C 264.933 292.800,265.200 293.063,265.200 293.600 C 265.200 294.044,265.467 294.400,265.800 294.400 C 266.130 294.400,266.400 294.627,266.400 294.905 C 266.400 295.385,267.364 296.050,268.900 296.629 C 269.285 296.774,269.600 297.232,269.600 297.647 C 269.600 298.061,269.861 298.400,270.180 298.400 C 270.499 298.400,270.919 298.684,271.113 299.030 C 271.353 299.460,271.902 299.619,272.833 299.530 L 274.200 299.400 274.446 284.200 C 274.581 275.840,274.884 267.020,275.120 264.600 C 275.356 262.180,275.561 251.703,275.575 241.318 L 275.600 222.436 274.582 221.418 C 274.022 220.858,273.500 220.400,273.423 220.400 C 273.170 220.400,267.600 214.724,267.593 214.459 C 267.582 214.031,265.720 212.400,265.244 212.400 C 265.000 212.400,264.800 212.130,264.800 211.800 C 264.800 211.470,264.530 211.200,264.200 211.200 C 263.870 211.200,263.600 211.028,263.600 210.818 C 263.600 210.608,263.142 209.978,262.582 209.418 C 262.022 208.858,261.392 208.400,261.182 208.400 C 260.972 208.400,260.800 208.130,260.800 207.800 C 260.800 207.470,260.530 207.200,260.200 207.200 C 259.870 207.200,259.600 207.028,259.600 206.818 C 259.600 206.608,259.142 205.978,258.582 205.418 C 258.022 204.858,257.392 204.400,257.182 204.400 C 256.972 204.400,256.800 204.130,256.800 203.800 C 256.800 203.470,256.530 203.200,256.200 203.200 C 255.870 203.200,255.600 203.029,255.600 202.821 C 255.600 202.270,253.788 200.400,253.254 200.400 C 253.004 200.400,252.800 200.130,252.800 199.800 C 252.800 199.470,252.530 199.200,252.200 199.200 C 251.870 199.200,251.600 199.029,251.600 198.821 C 251.600 198.270,249.788 196.400,249.254 196.400 C 249.004 196.400,248.800 196.130,248.800 195.800 C 248.800 195.470,248.530 195.200,248.200 195.200 C 247.870 195.200,247.597 194.975,247.593 194.700 C 247.585 194.090,245.858 192.400,245.244 192.400 C 245.000 192.400,244.800 192.130,244.800 191.800 C 244.800 191.470,244.530 191.200,244.200 191.200 C 243.870 191.200,243.597 190.975,243.593 190.700 C 243.585 190.090,241.858 188.400,241.244 188.400 C 241.000 188.400,240.800 188.130,240.800 187.800 C 240.800 187.470,240.530 187.200,240.200 187.200 C 239.870 187.200,239.597 186.975,239.593 186.700 C 239.585 186.090,237.858 184.400,237.244 184.400 C 237.000 184.400,236.800 184.130,236.800 183.800 C 236.800 183.470,236.530 183.200,236.200 183.200 C 235.870 183.200,235.600 182.996,235.600 182.746 C 235.600 182.212,233.730 180.400,233.179 180.400 C 232.971 180.400,232.800 180.130,232.800 179.800 C 232.800 179.470,232.530 179.200,232.200 179.200 C 231.870 179.200,231.600 179.029,231.600 178.821 C 231.600 178.270,229.788 176.400,229.254 176.400 C 229.004 176.400,228.800 176.130,228.800 175.800 C 228.800 175.470,228.530 175.200,228.200 175.200 C 227.870 175.200,227.600 174.930,227.600 174.600 C 227.600 174.270,227.459 174.000,227.287 174.000 C 227.116 174.000,225.417 172.494,223.512 170.652 C 221.608 168.811,219.768 167.197,219.425 167.065 C 219.081 166.933,218.800 166.549,218.800 166.213 C 218.800 165.876,218.530 165.600,218.200 165.600 C 217.870 165.600,217.600 165.330,217.600 165.000 C 217.600 164.670,217.349 164.400,217.043 164.400 C 216.736 164.400,216.382 164.130,216.255 163.800 C 216.129 163.470,215.749 163.200,215.413 163.200 C 215.076 163.200,214.800 162.964,214.800 162.675 C 214.800 162.112,212.705 160.400,212.016 160.400 C 211.787 160.400,211.600 160.130,211.600 159.800 C 211.600 159.470,211.330 159.200,211.000 159.200 C 210.667 159.200,210.400 158.844,210.400 158.400 C 210.400 157.882,210.133 157.600,209.643 157.600 C 209.226 157.600,208.782 157.330,208.655 157.000 C 208.268 155.991,206.050 156.227,205.832 157.300 " stroke="none" fill="#040404" fill-rule="evenodd"></path><path id="path1" d="" stroke="none" fill="#080404" fill-rule="evenodd"></path><path id="path2" d="" stroke="none" fill="#080404" fill-rule="evenodd"></path><path id="path3" d="" stroke="none" fill="#080404" fill-rule="evenodd"></path><path id="path4" d="" stroke="none" fill="#080404" fill-rule="evenodd"></path></g></svg>