<svg xmlns="http://www.w3.org/2000/svg" width="920" height="500" viewBox="0 0 920 500" version="1.1"><path d="M 440.984 87.750 L 440.967 147.500 382.956 89.250 C 351.049 57.212, 324.732 31, 324.472 31 C 324.212 31, 324 59.125, 324 93.500 L 324 156 299 156 C 279.664 156, 274.001 156.283, 274.005 157.250 C 274.007 157.938, 273.895 198.438, 273.755 247.250 C 273.586 305.881, 273.839 336.027, 274.500 336.079 C 275.050 336.123, 286.413 336.159, 299.750 336.159 L 324 336.160 324 399.492 L 324 462.824 382.500 404.189 L 441 345.554 441 408.777 L 441 472 444.500 472.111 C 446.425 472.172, 449.012 472.272, 450.250 472.333 L 452.500 472.445 452.757 409.222 C 452.899 374.450, 453.186 346, 453.395 346 C 453.604 346, 480.142 372.438, 512.368 404.750 L 570.960 463.500 570.980 399.810 L 571 336.120 595.750 336.183 L 620.500 336.247 620.755 246.123 L 621.011 156 596.005 156 L 571 156 571 93.500 C 571 59.125, 570.822 31, 570.605 31 C 570.387 31, 544.112 57.100, 512.215 89 C 480.317 120.900, 453.945 147, 453.610 147 C 453.274 147, 453 120.225, 453 87.500 L 453 28 447 28 L 441 28 440.984 87.750 M 510.500 108 L 462.508 156 510.678 156 L 558.848 156 558.829 108 C 558.819 81.600, 558.739 60, 558.652 60 C 558.564 60, 536.896 81.600, 510.500 108 M 336 108.481 L 336 155.962 384 156.231 C 410.400 156.379, 432 156.273, 432 155.996 C 432 155.180, 337.564 61, 336.746 61 C 336.336 61, 336 82.366, 336 108.481 M 286 246.500 L 286 324 305 324 L 324 324 324.009 300.750 L 324.018 277.500 378.147 223.250 L 432.276 169 359.138 169 L 286 169 286 246.500 M 516.753 223.253 L 571 277.507 571 300.753 L 571 324 590 324 L 609 324 609 246.500 L 609 169 535.753 169 L 462.507 169 516.753 223.253 M 388.246 230.254 L 336 282.507 336 357.754 C 336 399.139, 336.123 433, 336.273 433 C 336.423 433, 359.935 409.594, 388.523 380.987 L 440.500 328.975 441 253.487 C 441.275 211.969, 441.273 178, 440.996 178 C 440.719 178, 416.982 201.514, 388.246 230.254 M 453.374 252.987 L 453.500 327.974 505.978 380.487 C 534.840 409.369, 558.532 433, 558.626 433 C 558.720 433, 558.825 399.137, 558.861 357.750 L 558.925 282.500 506.725 230.250 C 478.016 201.512, 454.238 178, 453.887 178 C 453.536 178, 453.305 211.744, 453.374 252.987" stroke="none" fill="#c3c3c3" fill-rule="evenodd"/><path d="M 0 250.001 L 0 500.002 460.250 499.751 L 920.500 499.500 920.752 249.750 L 921.004 0 460.502 0 L 0 0 0 250.001 M 0.492 250.500 C 0.492 388, 0.608 444.101, 0.750 375.170 C 0.892 306.238, 0.892 193.738, 0.750 125.170 C 0.608 56.601, 0.492 113, 0.492 250.500 M 440.984 87.750 L 440.967 147.500 382.956 89.250 C 351.049 57.212, 324.732 31, 324.472 31 C 324.212 31, 324 59.125, 324 93.500 L 324 156 299 156 C 279.664 156, 274.001 156.283, 274.005 157.250 C 274.007 157.938, 273.895 198.438, 273.755 247.250 C 273.586 305.881, 273.839 336.027, 274.500 336.079 C 275.050 336.123, 286.413 336.159, 299.750 336.159 L 324 336.160 324 399.492 L 324 462.824 382.500 404.189 L 441 345.554 441 408.777 L 441 472 444.500 472.111 C 446.425 472.172, 449.012 472.272, 450.250 472.333 L 452.500 472.445 452.757 409.222 C 452.899 374.450, 453.186 346, 453.395 346 C 453.604 346, 480.142 372.438, 512.368 404.750 L 570.960 463.500 570.980 399.810 L 571 336.120 595.750 336.183 L 620.500 336.247 620.755 246.123 L 621.011 156 596.005 156 L 571 156 571 93.500 C 571 59.125, 570.822 31, 570.605 31 C 570.387 31, 544.112 57.100, 512.215 89 C 480.317 120.900, 453.945 147, 453.610 147 C 453.274 147, 453 120.225, 453 87.500 L 453 28 447 28 L 441 28 440.984 87.750 M 510.500 108 L 462.508 156 510.678 156 L 558.848 156 558.829 108 C 558.819 81.600, 558.739 60, 558.652 60 C 558.564 60, 536.896 81.600, 510.500 108 M 336 108.481 L 336 155.962 384 156.231 C 410.400 156.379, 432 156.273, 432 155.996 C 432 155.180, 337.564 61, 336.746 61 C 336.336 61, 336 82.366, 336 108.481 M 286 246.500 L 286 324 305 324 L 324 324 324.009 300.750 L 324.018 277.500 378.147 223.250 L 432.276 169 359.138 169 L 286 169 286 246.500 M 516.753 223.253 L 571 277.507 571 300.753 L 571 324 590 324 L 609 324 609 246.500 L 609 169 535.753 169 L 462.507 169 516.753 223.253 M 388.246 230.254 L 336 282.507 336 357.754 C 336 399.139, 336.123 433, 336.273 433 C 336.423 433, 359.935 409.594, 388.523 380.987 L 440.500 328.975 441 253.487 C 441.275 211.969, 441.273 178, 440.996 178 C 440.719 178, 416.982 201.514, 388.246 230.254 M 453.374 252.987 L 453.500 327.974 505.978 380.487 C 534.840 409.369, 558.532 433, 558.626 433 C 558.720 433, 558.825 399.137, 558.861 357.750 L 558.925 282.500 506.725 230.250 C 478.016 201.512, 454.238 178, 453.887 178 C 453.536 178, 453.305 211.744, 453.374 252.987" stroke="none" fill="#f8f8f8" fill-rule="evenodd"/></svg>