<svg id="svg" version="1.1" xmlns="http://www.w3.org/2000/svg" xmlns:xlink="http://www.w3.org/1999/xlink" width="100" height="100" viewBox="0, 0, 512,512"><g id="svgg"><path id="path0" d="M0.000 200.000 L 0.000 400.000 200.000 400.000 L 400.000 400.000 400.000 200.000 L 400.000 0.000 200.000 0.000 L 0.000 0.000 0.000 200.000 M205.502 89.777 L 205.605 123.353 206.472 124.277 C 207.771 125.660,208.382 125.443,211.200 122.600 C 212.617 121.170,214.106 120.000,214.508 120.000 C 214.910 120.000,216.469 118.740,217.973 117.200 C 219.477 115.660,221.023 114.400,221.409 114.400 C 221.795 114.400,223.533 112.960,225.272 111.200 C 227.011 109.440,228.745 108.000,229.126 108.000 C 229.506 108.000,231.340 106.470,233.200 104.600 C 235.060 102.730,236.902 101.200,237.293 101.200 C 237.684 101.200,239.517 99.670,241.366 97.800 C 243.215 95.930,245.039 94.400,245.419 94.400 C 245.800 94.400,247.533 92.960,249.272 91.200 C 251.011 89.440,252.745 88.000,253.124 88.000 C 253.504 88.000,255.608 86.200,257.800 84.000 C 259.992 81.800,262.111 80.000,262.510 80.000 C 262.908 80.000,264.734 78.470,266.566 76.600 C 268.399 74.730,270.219 73.200,270.611 73.200 C 271.003 73.200,272.471 72.030,273.873 70.600 C 275.275 69.170,276.737 68.000,277.120 68.000 C 277.504 68.000,279.340 66.470,281.200 64.600 C 283.060 62.730,284.908 61.200,285.307 61.200 C 285.706 61.200,287.168 60.030,288.556 58.600 C 289.945 57.170,291.287 56.000,291.540 56.000 C 291.883 56.000,292.000 65.859,292.000 94.878 L 292.000 133.756 293.075 134.878 L 294.150 136.000 305.487 136.000 C 315.196 136.000,316.858 135.914,317.055 135.400 C 317.182 135.070,317.626 134.800,318.043 134.800 C 318.704 134.800,319.358 252.702,318.700 253.289 C 318.645 253.338,310.860 253.473,301.400 253.589 L 284.200 253.800 284.098 288.900 C 284.023 314.593,283.875 324.000,283.545 324.000 C 283.297 324.000,281.325 322.200,279.161 320.000 C 276.998 317.800,274.904 316.000,274.508 316.000 C 274.112 316.000,271.454 313.660,268.600 310.800 C 265.746 307.940,263.108 305.600,262.738 305.600 C 262.367 305.600,259.641 303.170,256.680 300.200 C 253.718 297.230,250.986 294.800,250.608 294.800 C 250.230 294.800,247.510 292.370,244.564 289.400 C 241.618 286.430,238.888 284.000,238.498 284.000 C 238.108 284.000,235.454 281.660,232.600 278.800 C 229.746 275.940,227.108 273.600,226.738 273.600 C 226.367 273.600,223.641 271.170,220.680 268.200 C 217.718 265.230,214.977 262.800,214.588 262.800 C 214.199 262.800,213.017 261.900,211.963 260.800 C 209.755 258.497,208.133 258.160,206.526 259.670 L 205.600 260.539 205.600 292.590 C 205.600 316.984,205.485 324.755,205.120 325.120 C 204.802 325.438,203.076 325.600,200.000 325.600 C 196.924 325.600,195.198 325.438,194.880 325.120 C 194.514 324.754,194.400 316.347,194.400 289.720 L 194.400 254.800 192.895 254.800 C 191.488 254.800,191.000 255.191,185.400 260.800 C 182.106 264.100,179.096 266.800,178.713 266.800 C 178.330 266.800,174.427 270.400,170.039 274.800 C 165.652 279.200,161.758 282.800,161.385 282.800 C 161.013 282.800,157.384 286.130,153.320 290.200 C 149.257 294.270,145.630 297.600,145.261 297.600 C 144.893 297.600,141.625 300.570,138.000 304.200 C 134.375 307.830,131.094 310.800,130.709 310.800 C 130.323 310.800,127.053 313.770,123.442 317.400 C 119.830 321.030,116.678 324.000,116.438 324.000 C 116.139 324.000,116.000 321.992,116.000 317.689 C 116.000 311.873,115.937 311.324,115.200 310.693 C 114.414 310.020,114.400 309.513,114.400 281.804 L 114.400 253.600 98.300 253.594 C 89.445 253.591,81.974 253.445,81.699 253.269 C 81.300 253.016,81.218 241.012,81.299 194.576 L 81.400 136.200 83.655 136.081 C 85.277 135.996,86.108 135.744,86.617 135.181 C 87.290 134.437,87.933 134.400,100.062 134.400 C 112.267 134.400,112.833 134.367,113.600 133.600 C 114.387 132.813,114.400 132.267,114.400 100.062 C 114.400 67.832,114.412 67.313,115.200 66.600 C 115.901 65.965,116.000 65.368,116.000 61.762 C 116.000 56.806,116.205 56.613,118.715 59.190 C 119.792 60.295,120.989 61.200,121.376 61.200 C 121.763 61.200,124.490 63.630,127.436 66.600 C 130.382 69.570,133.111 72.000,133.501 72.000 C 133.890 72.000,137.175 74.970,140.800 78.600 C 144.425 82.230,147.694 85.200,148.064 85.200 C 148.434 85.200,151.701 88.170,155.322 91.800 C 158.944 95.430,162.211 98.400,162.582 98.400 C 162.952 98.400,166.577 101.730,170.637 105.800 C 174.697 109.870,178.332 113.200,178.714 113.200 C 179.097 113.200,182.106 115.900,185.400 119.200 C 191.000 124.809,191.488 125.200,192.895 125.200 L 194.400 125.200 194.400 90.867 C 194.400 71.983,194.525 56.408,194.678 56.256 C 194.830 56.103,197.305 56.028,200.178 56.089 L 205.400 56.200 205.502 89.777 M124.870 81.326 C 123.613 82.664,123.562 89.479,124.800 90.600 C 125.581 91.307,125.600 91.832,125.600 112.862 L 125.600 134.400 152.586 134.400 C 179.400 134.400,179.575 134.405,180.012 135.222 C 180.614 136.347,183.716 136.206,183.937 135.043 C 184.110 134.132,166.206 116.000,165.133 116.000 C 164.763 116.000,161.227 112.760,157.277 108.800 C 153.326 104.840,149.790 101.600,149.419 101.600 C 149.049 101.600,146.052 98.900,142.761 95.600 C 139.469 92.300,136.463 89.600,136.081 89.600 C 135.699 89.600,133.323 87.530,130.800 85.000 C 125.652 79.837,126.041 80.079,124.870 81.326 M277.355 82.173 C 277.223 82.518,276.725 82.800,276.250 82.800 C 275.687 82.800,273.994 84.196,271.400 86.800 C 269.208 89.000,267.095 90.800,266.705 90.800 C 266.314 90.800,264.214 92.600,262.039 94.800 C 259.863 97.000,257.771 98.800,257.389 98.800 C 257.007 98.800,254.907 100.600,252.722 102.800 C 250.538 105.000,248.443 106.800,248.068 106.800 C 247.692 106.800,245.592 108.600,243.400 110.800 C 241.208 113.000,239.095 114.800,238.705 114.800 C 238.314 114.800,236.214 116.600,234.039 118.800 C 231.863 121.000,229.771 122.800,229.390 122.800 C 229.009 122.800,227.178 124.330,225.320 126.200 C 223.463 128.070,221.632 129.600,221.253 129.600 C 220.270 129.600,217.600 132.464,217.600 133.519 L 217.600 134.405 248.700 134.302 L 279.800 134.200 279.915 130.482 C 280.003 127.666,280.173 126.709,280.615 126.539 C 281.464 126.213,281.455 119.509,280.604 118.803 C 280.095 118.381,279.993 115.650,279.904 100.054 L 279.800 81.800 278.698 81.673 C 277.979 81.591,277.512 81.764,277.355 82.173 M93.600 193.400 L 93.600 241.200 104.000 241.200 L 114.400 241.200 114.400 229.638 L 114.400 218.077 147.200 185.280 C 167.671 164.812,180.000 152.198,180.000 151.723 C 180.000 151.305,180.532 150.521,181.183 149.981 C 182.722 148.705,182.882 146.800,181.449 146.800 C 180.926 146.800,180.274 146.530,180.000 146.200 C 179.563 145.673,174.242 145.600,136.551 145.600 L 93.600 145.600 93.600 193.400 M220.000 146.200 C 219.726 146.530,219.074 146.800,218.551 146.800 C 217.704 146.800,217.600 146.980,217.600 148.441 L 217.600 150.083 250.800 183.279 L 284.000 216.476 284.000 227.892 L 284.000 239.308 285.021 240.254 C 286.038 241.197,286.072 241.200,296.221 241.200 L 306.400 241.200 306.400 193.400 L 306.400 145.600 263.449 145.600 C 225.758 145.600,220.437 145.673,220.000 146.200 M189.200 159.614 C 188.210 160.687,187.067 161.573,186.660 161.583 C 186.226 161.593,173.448 174.072,155.760 191.760 L 125.600 221.919 125.600 260.160 L 125.600 298.400 127.190 298.400 C 128.713 298.400,129.056 298.123,135.358 291.800 C 138.977 288.170,142.242 285.200,142.614 285.200 C 142.987 285.200,146.616 281.870,150.680 277.800 C 154.743 273.730,158.370 270.400,158.739 270.400 C 159.107 270.400,162.375 267.430,166.000 263.800 C 169.625 260.170,172.906 257.200,173.291 257.200 C 173.677 257.200,176.947 254.230,180.558 250.600 C 184.170 246.970,187.434 244.000,187.812 244.000 C 188.190 244.000,189.827 242.668,191.450 241.040 L 194.400 238.081 194.400 199.289 C 194.400 165.296,194.326 160.436,193.800 160.000 C 193.470 159.726,193.200 159.074,193.200 158.551 C 193.200 156.842,191.288 157.350,189.200 159.614 M205.600 199.200 C 205.600 245.065,205.458 242.400,207.906 242.400 C 208.295 242.400,210.767 244.560,213.400 247.200 C 216.033 249.840,218.494 252.000,218.868 252.000 C 219.242 252.000,221.878 254.340,224.725 257.200 C 227.572 260.060,230.207 262.400,230.581 262.400 C 230.955 262.400,233.680 264.830,236.636 267.800 C 239.593 270.770,242.327 273.200,242.712 273.200 C 243.098 273.200,245.477 275.270,248.000 277.800 C 250.523 280.330,252.890 282.400,253.261 282.400 C 253.632 282.400,256.359 284.830,259.320 287.800 C 262.282 290.770,265.017 293.200,265.400 293.200 C 265.782 293.200,267.242 294.370,268.644 295.800 C 270.942 298.144,271.351 298.400,272.797 298.400 C 274.382 298.400,274.961 297.790,273.800 297.345 C 273.363 297.177,273.200 296.489,273.200 294.806 C 273.200 293.242,273.394 292.337,273.800 292.000 C 274.325 291.564,274.400 287.148,274.400 256.711 L 274.400 221.920 246.879 194.398 C 228.048 175.567,219.050 166.833,218.382 166.738 C 217.653 166.635,217.353 166.295,217.200 165.400 C 217.046 164.501,216.747 164.165,216.009 164.061 C 215.419 163.977,213.773 162.651,211.913 160.761 C 209.056 157.857,208.673 157.600,207.202 157.600 L 205.600 157.600 205.600 199.200 " stroke="none" fill="#fcfcfc" fill-rule="evenodd"></path><path id="path1" d="M194.991 56.488 C 194.885 56.769,194.754 72.390,194.699 91.200 L 194.600 125.400 193.000 125.514 C 191.425 125.626,191.305 125.532,185.405 119.614 C 182.108 116.306,179.087 113.600,178.692 113.600 C 178.292 113.600,174.705 110.318,170.605 106.200 C 166.553 102.130,162.927 98.800,162.548 98.800 C 162.169 98.800,158.902 95.830,155.287 92.200 C 151.672 88.570,148.416 85.600,148.053 85.600 C 147.689 85.600,144.335 82.540,140.600 78.800 C 136.865 75.060,133.488 72.000,133.095 72.000 C 132.703 72.000,130.050 69.660,127.200 66.800 C 124.237 63.826,121.698 61.600,121.269 61.600 C 120.857 61.600,119.681 60.690,118.657 59.578 C 116.249 56.964,116.000 57.208,116.000 62.175 C 116.000 65.355,115.862 66.416,115.400 66.800 C 114.876 67.235,114.799 71.442,114.793 100.149 L 114.786 133.000 113.837 133.900 C 112.893 134.795,112.813 134.800,100.093 134.800 C 89.393 134.800,87.219 134.895,86.816 135.381 C 86.525 135.732,85.434 136.009,84.067 136.081 L 81.800 136.200 81.699 194.696 L 81.597 253.191 98.099 253.296 L 114.600 253.400 114.703 281.786 C 114.792 306.472,114.883 310.215,115.403 310.505 C 115.892 310.779,116.000 311.952,116.000 316.996 C 116.000 320.501,116.166 323.255,116.384 323.390 C 116.596 323.521,119.744 320.651,123.380 317.014 C 127.017 313.376,130.311 310.400,130.701 310.400 C 131.090 310.400,134.375 307.430,138.000 303.800 C 141.625 300.170,144.887 297.200,145.249 297.200 C 145.611 297.200,149.213 293.873,153.253 289.807 C 157.294 285.741,160.918 282.411,161.307 282.407 C 161.696 282.403,165.608 278.800,170.000 274.400 C 174.407 269.985,178.305 266.400,178.698 266.400 C 179.090 266.400,182.108 263.694,185.405 260.386 C 191.305 254.468,191.425 254.374,193.000 254.486 L 194.600 254.600 194.800 289.800 L 195.000 325.000 200.000 325.000 L 205.000 325.000 205.102 292.819 L 205.205 260.639 206.277 259.519 C 208.010 257.710,209.622 257.958,212.000 260.400 C 213.071 261.500,214.275 262.402,214.674 262.405 C 215.073 262.408,217.804 264.838,220.742 267.805 C 223.679 270.772,226.382 273.200,226.747 273.200 C 227.112 273.200,229.836 275.630,232.800 278.600 C 235.764 281.570,238.511 284.000,238.904 284.000 C 239.297 284.000,241.950 286.340,244.800 289.200 C 247.650 292.060,250.301 294.402,250.691 294.405 C 251.081 294.408,253.804 296.838,256.742 299.805 C 259.679 302.772,262.382 305.200,262.747 305.200 C 263.112 305.200,265.836 307.630,268.800 310.600 C 271.764 313.570,274.509 316.000,274.900 316.000 C 275.290 316.000,277.337 317.727,279.448 319.837 C 281.683 322.073,283.433 323.527,283.640 323.320 C 283.840 323.120,284.040 307.758,284.098 288.182 L 284.200 253.400 301.300 253.296 L 318.400 253.191 318.400 193.996 C 318.400 139.907,318.292 133.219,317.455 135.400 C 317.258 135.914,315.551 136.000,305.482 136.000 L 293.739 136.000 292.870 135.074 L 292.000 134.148 292.000 95.498 C 292.000 71.178,291.857 56.759,291.615 56.609 C 291.404 56.479,290.060 57.548,288.629 58.986 C 287.198 60.424,285.702 61.600,285.304 61.600 C 284.907 61.600,283.150 63.040,281.400 64.800 C 279.650 66.560,277.923 68.000,277.561 68.000 C 277.199 68.000,275.665 69.259,274.152 70.797 C 272.638 72.336,271.079 73.596,270.687 73.597 C 270.295 73.599,268.546 75.040,266.800 76.800 C 265.054 78.560,263.302 80.000,262.905 80.000 C 262.509 80.000,260.392 81.800,258.200 84.000 C 256.008 86.200,253.925 88.000,253.571 88.000 C 253.216 88.000,251.413 89.525,249.563 91.389 C 247.713 93.253,245.867 94.783,245.460 94.789 C 245.053 94.795,243.221 96.330,241.389 98.200 C 239.556 100.070,237.725 101.600,237.319 101.600 C 236.913 101.600,235.150 103.040,233.400 104.800 C 231.650 106.560,229.928 108.000,229.573 108.000 C 229.217 108.000,227.413 109.525,225.563 111.389 C 223.713 113.253,221.865 114.783,221.455 114.789 C 221.045 114.795,219.574 115.970,218.185 117.400 C 216.797 118.830,215.327 120.000,214.920 120.000 C 214.512 120.000,212.928 121.260,211.400 122.800 C 208.299 125.925,207.814 126.084,206.277 124.481 L 205.205 123.361 205.102 89.781 L 205.000 56.200 200.092 56.088 C 196.387 56.003,195.137 56.101,194.991 56.488 M130.800 84.600 C 133.326 87.133,135.717 89.200,136.122 89.200 C 136.538 89.200,139.432 91.800,142.800 95.200 C 146.069 98.500,149.053 101.200,149.432 101.200 C 149.811 101.200,153.452 104.530,157.523 108.600 C 161.594 112.670,165.210 116.000,165.559 116.000 C 166.773 116.000,184.000 133.653,184.000 134.897 C 184.000 136.196,180.333 136.644,179.856 135.403 C 179.657 134.883,176.125 134.792,152.514 134.703 L 125.400 134.600 125.297 112.946 C 125.208 94.328,125.110 91.223,124.597 90.797 C 123.541 89.921,123.757 82.111,124.870 80.926 C 126.041 79.679,125.652 79.437,130.800 84.600 M279.904 99.642 C 280.005 117.275,280.035 117.907,280.804 118.604 C 281.987 119.674,281.996 126.160,280.815 126.792 C 280.136 127.155,280.014 127.713,279.915 130.906 L 279.800 134.600 248.600 134.600 L 217.400 134.600 217.266 133.650 C 217.110 132.548,220.109 129.200,221.253 129.200 C 221.630 129.200,223.438 127.670,225.270 125.800 C 227.101 123.930,228.921 122.400,229.314 122.400 C 229.707 122.400,231.815 120.600,234.000 118.400 C 236.185 116.200,238.297 114.400,238.694 114.400 C 239.090 114.400,241.208 112.600,243.400 110.400 C 245.592 108.200,247.694 106.400,248.072 106.400 C 248.450 106.400,250.523 104.600,252.679 102.400 C 254.835 100.200,256.920 98.400,257.313 98.400 C 257.706 98.400,259.815 96.600,262.000 94.400 C 264.185 92.200,266.297 90.400,266.694 90.400 C 267.090 90.400,269.208 88.600,271.400 86.400 C 273.994 83.796,275.687 82.400,276.250 82.400 C 276.725 82.400,277.223 82.118,277.355 81.773 C 277.512 81.364,277.979 81.191,278.698 81.273 L 279.800 81.400 279.904 99.642 M179.980 145.776 C 180.243 146.093,180.940 146.408,181.529 146.476 C 183.291 146.680,183.242 148.587,181.432 150.196 C 180.645 150.897,180.000 151.797,180.000 152.195 C 180.000 152.621,166.588 166.330,147.406 185.513 L 114.812 218.107 114.706 229.753 L 114.600 241.400 104.000 241.400 L 93.400 241.400 93.297 193.800 C 93.240 167.620,93.280 145.975,93.385 145.700 C 93.689 144.899,179.315 144.975,179.980 145.776 M306.600 193.400 L 306.600 241.400 296.252 241.507 L 285.904 241.614 284.952 240.586 L 284.000 239.559 284.000 228.240 L 284.000 216.921 250.575 183.496 L 217.151 150.071 217.275 148.336 C 217.386 146.789,217.516 146.587,218.471 146.476 C 219.060 146.408,219.757 146.092,220.021 145.774 C 220.435 145.276,226.412 145.210,263.550 145.298 L 306.600 145.400 306.600 193.400 M193.524 158.471 C 193.592 159.060,193.907 159.757,194.224 160.020 C 194.718 160.430,194.799 166.008,194.792 199.349 L 194.785 238.200 191.836 241.100 C 190.215 242.695,188.594 244.000,188.235 244.000 C 187.875 244.000,184.530 247.060,180.800 250.800 C 177.070 254.540,173.698 257.600,173.305 257.600 C 172.912 257.600,169.625 260.570,166.000 264.200 C 162.375 267.830,159.113 270.800,158.751 270.800 C 158.389 270.800,154.787 274.127,150.747 278.193 C 146.706 282.259,143.079 285.589,142.686 285.593 C 142.294 285.597,139.007 288.580,135.383 292.223 L 128.794 298.846 127.097 298.723 L 125.400 298.600 125.298 260.242 L 125.196 221.883 155.538 191.542 C 174.483 172.596,186.165 161.200,186.641 161.200 C 187.060 161.200,188.212 160.294,189.201 159.187 C 191.339 156.795,193.293 156.471,193.524 158.471 M212.176 160.564 C 214.129 162.557,215.865 163.983,216.436 164.064 C 217.148 164.164,217.433 164.488,217.527 165.300 C 217.620 166.109,217.874 166.400,218.489 166.400 C 219.063 166.400,228.039 175.114,247.063 194.141 L 274.800 221.882 274.800 256.692 C 274.800 287.146,274.725 291.564,274.200 292.000 C 273.331 292.721,273.376 296.748,274.261 297.395 C 275.268 298.132,274.540 298.800,272.731 298.800 C 271.261 298.800,270.874 298.557,268.585 296.200 C 267.197 294.770,265.732 293.598,265.331 293.595 C 264.928 293.592,262.205 291.171,259.258 288.195 C 256.321 285.228,253.618 282.800,253.252 282.800 C 252.886 282.800,250.523 280.730,248.000 278.200 C 245.477 275.670,243.087 273.600,242.688 273.600 C 242.289 273.600,239.558 271.175,236.607 268.200 C 233.661 265.230,230.942 262.800,230.565 262.800 C 230.188 262.800,227.448 260.370,224.476 257.400 C 221.505 254.430,218.784 252.000,218.430 252.000 C 218.076 252.000,215.723 249.930,213.200 247.400 C 210.607 244.799,208.287 242.800,207.863 242.800 C 207.450 242.800,206.685 242.395,206.163 241.900 L 205.214 241.000 205.207 199.367 C 205.203 176.468,205.320 157.613,205.467 157.467 C 206.715 156.218,208.911 157.232,212.176 160.564 " stroke="none" fill="#e4e4e4" fill-rule="evenodd"></path><path id="path2" d="" stroke="none" fill="#f4100f0" fill-rule="evenodd"></path><path id="path3" d="" stroke="none" fill="#f4100f0" fill-rule="evenodd"></path><path id="path4" d="" stroke="none" fill="#f4100f0" fill-rule="evenodd"></path></g></svg>