<svg id="svg" version="1.1" xmlns="http://www.w3.org/2000/svg" xmlns:xlink="http://www.w3.org/1999/xlink" width="400" height="400" viewBox="0, 0, 400,400"><g id="svgg"><path id="path0" d="M0.000 200.000 L 0.000 400.000 200.000 400.000 L 400.000 400.000 400.000 200.000 L 400.000 0.000 200.000 0.000 L 0.000 0.000 0.000 200.000 M204.800 89.800 C 204.800 109.386,204.949 123.200,205.161 123.200 C 205.359 123.200,205.711 123.742,205.942 124.405 C 206.475 125.935,207.255 126.231,208.676 125.443 C 209.294 125.100,210.115 124.704,210.500 124.563 C 210.885 124.422,211.200 124.058,211.200 123.753 C 211.200 123.449,211.476 123.200,211.813 123.200 C 212.149 123.200,212.529 122.930,212.655 122.600 C 212.782 122.270,213.136 122.000,213.443 122.000 C 213.749 122.000,214.000 121.730,214.000 121.400 C 214.000 121.070,214.242 120.800,214.538 120.800 C 214.834 120.800,215.402 120.440,215.800 120.000 C 216.198 119.560,216.772 119.200,217.075 119.200 C 217.377 119.200,217.729 118.930,217.855 118.600 C 217.982 118.270,218.336 118.000,218.643 118.000 C 218.949 118.000,219.200 117.730,219.200 117.400 C 219.200 117.070,219.487 116.800,219.837 116.800 C 220.188 116.800,220.569 116.440,220.684 116.000 C 220.799 115.560,221.142 115.200,221.447 115.200 C 221.751 115.200,222.000 115.011,222.000 114.779 C 222.000 114.548,222.540 114.170,223.200 113.940 C 223.860 113.710,224.400 113.371,224.400 113.188 C 224.400 113.004,224.760 112.740,225.200 112.600 C 225.640 112.460,226.000 112.088,226.000 111.773 C 226.000 111.458,226.270 111.200,226.600 111.200 C 226.930 111.200,227.200 110.930,227.200 110.600 C 227.200 110.270,227.476 110.000,227.813 110.000 C 228.149 110.000,228.529 109.730,228.655 109.400 C 228.782 109.070,229.135 108.800,229.439 108.800 C 229.744 108.800,230.218 108.440,230.493 108.000 C 230.768 107.560,231.309 107.200,231.696 107.200 C 232.083 107.200,232.400 106.930,232.400 106.600 C 232.400 106.270,232.600 106.000,232.844 106.000 C 233.458 106.000,235.185 104.310,235.193 103.700 C 235.197 103.425,235.560 103.200,236.000 103.200 C 236.444 103.200,236.800 102.933,236.800 102.600 C 236.800 102.270,237.042 102.000,237.338 102.000 C 237.634 102.000,238.202 101.640,238.600 101.200 C 238.998 100.760,239.566 100.400,239.862 100.400 C 240.158 100.400,240.400 100.130,240.400 99.800 C 240.400 99.467,240.756 99.200,241.200 99.200 C 241.644 99.200,242.000 98.933,242.000 98.600 C 242.000 98.270,242.270 98.000,242.600 98.000 C 242.930 98.000,243.200 97.730,243.200 97.400 C 243.200 97.070,243.487 96.800,243.837 96.800 C 244.188 96.800,244.565 96.455,244.675 96.034 C 244.785 95.613,245.309 95.159,245.838 95.026 C 246.367 94.893,246.800 94.608,246.800 94.392 C 246.800 94.177,247.076 94.000,247.413 94.000 C 247.749 94.000,248.126 93.737,248.250 93.415 C 248.373 93.094,248.817 92.721,249.237 92.588 C 249.657 92.455,250.000 92.088,250.000 91.773 C 250.000 91.458,250.270 91.200,250.600 91.200 C 250.930 91.200,251.200 90.930,251.200 90.600 C 251.200 90.270,251.476 90.000,251.813 90.000 C 252.149 90.000,252.529 89.730,252.655 89.400 C 252.782 89.070,253.124 88.800,253.416 88.800 C 253.707 88.800,254.060 88.440,254.200 88.000 C 254.340 87.558,254.805 87.200,255.240 87.200 C 255.672 87.200,256.129 86.930,256.255 86.600 C 256.382 86.270,256.691 85.997,256.943 85.993 C 257.520 85.984,259.200 84.236,259.200 83.644 C 259.200 83.400,259.560 83.200,260.000 83.200 C 260.444 83.200,260.800 82.933,260.800 82.600 C 260.800 82.270,261.070 82.000,261.400 82.000 C 261.730 82.000,262.000 81.730,262.000 81.400 C 262.000 81.070,262.270 80.800,262.600 80.800 C 262.930 80.800,263.529 80.471,263.931 80.069 C 264.332 79.668,264.962 79.223,265.331 79.082 C 265.699 78.941,266.000 78.639,266.000 78.413 C 266.000 78.186,266.270 78.000,266.600 78.000 C 266.930 78.000,267.200 77.730,267.200 77.400 C 267.200 77.070,267.487 76.800,267.837 76.800 C 268.188 76.800,268.569 76.440,268.684 76.000 C 268.799 75.560,269.142 75.200,269.447 75.200 C 269.751 75.200,270.000 74.930,270.000 74.600 C 270.000 74.266,270.356 74.000,270.804 74.000 C 271.246 74.000,271.916 73.640,272.293 73.200 C 272.670 72.760,273.208 72.400,273.489 72.400 C 273.770 72.400,274.000 72.130,274.000 71.800 C 274.000 71.470,274.270 71.200,274.600 71.200 C 274.930 71.200,275.200 70.930,275.200 70.600 C 275.200 70.270,275.476 70.000,275.813 70.000 C 276.149 70.000,276.529 69.730,276.655 69.400 C 276.782 69.070,277.124 68.800,277.416 68.800 C 277.707 68.800,278.060 68.440,278.200 68.000 C 278.340 67.558,278.805 67.200,279.240 67.200 C 279.672 67.200,280.129 66.930,280.255 66.600 C 280.382 66.270,280.691 65.997,280.943 65.993 C 281.520 65.984,283.200 64.236,283.200 63.644 C 283.200 63.400,283.560 63.200,284.000 63.200 C 284.440 63.200,284.800 62.950,284.800 62.643 C 284.800 62.337,285.215 61.983,285.721 61.856 C 286.228 61.728,287.173 61.084,287.821 60.423 C 288.470 59.763,289.225 59.217,289.500 59.211 C 289.775 59.205,290.000 58.930,290.000 58.600 C 290.000 58.270,290.241 58.000,290.535 58.000 C 291.201 58.000,291.600 78.199,291.600 111.851 L 291.600 134.372 292.500 134.846 C 292.995 135.106,293.528 135.518,293.685 135.760 C 294.202 136.558,316.557 136.585,317.354 135.789 C 317.949 135.194,318.000 139.821,318.000 193.971 L 318.000 252.800 301.574 252.800 C 291.016 252.800,284.871 252.948,284.374 253.214 C 283.626 253.614,283.600 254.252,283.599 272.514 C 283.599 302.499,283.179 322.000,282.535 322.000 C 282.241 322.000,282.000 321.730,282.000 321.400 C 282.000 321.070,281.828 320.800,281.618 320.800 C 281.122 320.800,279.200 318.878,279.200 318.382 C 279.200 318.172,278.949 318.000,278.643 318.000 C 278.336 318.000,277.982 317.730,277.855 317.400 C 277.729 317.070,277.439 316.800,277.213 316.800 C 276.986 316.800,276.440 316.440,276.000 316.000 C 275.560 315.560,274.930 315.200,274.600 315.200 C 274.270 315.200,274.000 314.930,274.000 314.600 C 274.000 314.270,273.730 314.000,273.400 314.000 C 273.070 314.000,272.800 313.730,272.800 313.400 C 272.800 313.067,272.444 312.800,272.000 312.800 C 271.560 312.800,271.200 312.592,271.200 312.338 C 271.200 311.793,268.140 308.800,267.583 308.800 C 267.372 308.800,267.200 308.530,267.200 308.200 C 267.200 307.870,266.924 307.600,266.587 307.600 C 266.251 307.600,265.878 307.346,265.759 307.037 C 265.640 306.727,265.015 306.255,264.371 305.988 C 263.727 305.721,263.200 305.345,263.200 305.151 C 263.200 304.958,262.930 304.800,262.600 304.800 C 262.270 304.800,261.997 304.575,261.993 304.300 C 261.985 303.690,260.258 302.000,259.644 302.000 C 259.400 302.000,259.200 301.730,259.200 301.400 C 259.200 301.070,258.930 300.800,258.600 300.800 C 258.270 300.800,258.000 300.542,258.000 300.227 C 258.000 299.912,257.640 299.540,257.200 299.400 C 256.760 299.260,256.400 298.888,256.400 298.573 C 256.400 298.258,256.149 298.000,255.843 298.000 C 255.536 298.000,255.182 297.730,255.055 297.400 C 254.929 297.070,254.639 296.800,254.413 296.800 C 254.186 296.800,253.640 296.485,253.200 296.100 C 252.760 295.715,252.040 295.085,251.600 294.700 C 251.160 294.315,250.620 294.000,250.400 294.000 C 250.180 294.000,250.000 293.730,250.000 293.400 C 250.000 293.070,249.751 292.800,249.447 292.800 C 249.142 292.800,248.799 292.440,248.684 292.000 C 248.569 291.560,248.188 291.200,247.837 291.200 C 247.487 291.200,247.200 290.930,247.200 290.600 C 247.200 290.270,246.930 290.000,246.600 290.000 C 246.270 290.000,246.000 289.730,246.000 289.400 C 246.000 289.070,245.833 288.800,245.630 288.800 C 245.426 288.800,244.350 287.900,243.238 286.800 C 242.127 285.700,241.061 284.800,240.871 284.800 C 240.680 284.800,240.198 284.440,239.800 284.000 C 239.402 283.560,238.834 283.200,238.538 283.200 C 238.242 283.200,238.000 282.930,238.000 282.600 C 238.000 282.270,237.730 282.000,237.400 282.000 C 237.070 282.000,236.800 281.730,236.800 281.400 C 236.800 281.067,236.444 280.800,236.000 280.800 C 235.467 280.800,235.200 280.533,235.200 280.000 C 235.200 279.556,234.933 279.200,234.600 279.200 C 234.270 279.200,234.000 278.930,234.000 278.600 C 234.000 278.270,233.749 278.000,233.443 278.000 C 233.136 278.000,232.782 277.730,232.655 277.400 C 232.529 277.070,232.149 276.800,231.813 276.800 C 231.476 276.800,231.200 276.530,231.200 276.200 C 231.200 275.870,231.065 275.596,230.900 275.591 C 230.735 275.586,229.905 274.956,229.056 274.191 C 228.207 273.426,227.172 272.800,226.756 272.800 C 226.267 272.800,226.000 272.518,226.000 272.000 C 226.000 271.560,225.749 271.200,225.443 271.200 C 225.136 271.200,224.782 270.930,224.655 270.600 C 224.529 270.270,224.149 270.000,223.813 270.000 C 223.476 270.000,223.200 269.730,223.200 269.400 C 223.200 269.070,222.930 268.800,222.600 268.800 C 222.270 268.800,222.000 268.596,222.000 268.346 C 222.000 267.812,220.130 266.000,219.579 266.000 C 219.371 266.000,219.200 265.730,219.200 265.400 C 219.200 265.070,218.939 264.800,218.620 264.800 C 218.301 264.800,217.896 264.571,217.720 264.292 C 217.544 264.012,216.905 263.566,216.300 263.300 C 215.695 263.035,215.200 262.633,215.200 262.409 C 215.200 262.184,214.930 262.000,214.600 262.000 C 214.270 262.000,214.000 261.730,214.000 261.400 C 214.000 261.070,213.730 260.800,213.400 260.800 C 213.070 260.800,212.800 260.513,212.800 260.163 C 212.800 259.812,212.440 259.431,212.000 259.316 C 211.560 259.201,211.200 258.858,211.200 258.553 C 211.200 258.139,210.547 258.000,208.600 258.000 C 206.532 258.000,206.000 258.125,206.000 258.613 C 206.000 258.949,205.730 259.329,205.400 259.455 C 204.873 259.657,204.800 263.672,204.800 292.243 L 204.800 324.800 200.000 324.800 L 195.200 324.800 195.200 289.814 C 195.200 250.399,195.504 254.000,192.172 254.000 C 190.743 254.000,188.800 255.395,188.800 256.421 C 188.800 256.629,188.549 256.800,188.243 256.800 C 187.936 256.800,187.582 257.070,187.455 257.400 C 187.329 257.730,186.949 258.000,186.613 258.000 C 186.276 258.000,186.000 258.251,186.000 258.557 C 186.000 258.864,185.730 259.218,185.400 259.345 C 185.070 259.471,184.800 259.851,184.800 260.187 C 184.800 260.533,184.452 260.800,184.000 260.800 C 183.556 260.800,183.200 261.067,183.200 261.400 C 183.200 261.730,182.930 262.000,182.600 262.000 C 182.270 262.000,182.000 262.270,182.000 262.600 C 182.000 262.930,181.730 263.200,181.400 263.200 C 181.067 263.200,180.800 263.556,180.800 264.000 C 180.800 264.533,180.533 264.800,180.000 264.800 C 179.556 264.800,179.200 265.067,179.200 265.400 C 179.200 265.730,178.975 266.001,178.700 266.002 C 178.425 266.003,177.515 266.633,176.678 267.402 C 175.840 268.171,175.030 268.800,174.876 268.800 C 174.723 268.800,173.788 269.700,172.800 270.800 C 171.812 271.900,170.777 272.800,170.501 272.800 C 170.226 272.800,170.000 273.070,170.000 273.400 C 170.000 273.730,169.730 274.000,169.400 274.000 C 169.070 274.000,168.800 274.270,168.800 274.600 C 168.800 274.930,168.513 275.200,168.163 275.200 C 167.812 275.200,167.431 275.560,167.316 276.000 C 167.201 276.440,166.858 276.800,166.553 276.800 C 166.249 276.800,166.000 277.070,166.000 277.400 C 166.000 277.730,165.730 278.000,165.400 278.000 C 165.070 278.000,164.800 278.270,164.800 278.600 C 164.800 278.930,164.513 279.200,164.163 279.200 C 163.812 279.200,163.431 279.560,163.316 280.000 C 163.201 280.440,162.858 280.800,162.553 280.800 C 162.249 280.800,162.000 281.070,162.000 281.400 C 162.000 281.730,161.767 282.000,161.481 282.000 C 160.889 282.000,159.745 282.831,157.763 284.700 C 157.006 285.415,156.209 286.000,155.993 286.000 C 155.777 286.000,155.600 286.258,155.600 286.573 C 155.600 286.888,155.240 287.260,154.800 287.400 C 154.360 287.540,154.000 287.912,154.000 288.227 C 154.000 288.542,153.730 288.800,153.400 288.800 C 153.070 288.800,152.800 289.070,152.800 289.400 C 152.800 289.730,152.600 290.000,152.356 290.000 C 151.742 290.000,150.015 291.690,150.007 292.300 C 150.003 292.575,149.730 292.800,149.400 292.800 C 149.070 292.800,148.800 293.070,148.800 293.400 C 148.800 293.730,148.600 294.000,148.356 294.000 C 147.742 294.000,146.015 295.690,146.007 296.300 C 146.003 296.575,145.730 296.800,145.400 296.800 C 145.070 296.800,144.800 296.968,144.800 297.173 C 144.800 297.378,144.444 297.659,144.010 297.797 C 143.575 297.935,142.582 298.667,141.803 299.424 C 141.023 300.181,140.209 300.800,139.993 300.800 C 139.777 300.800,139.600 301.070,139.600 301.400 C 139.600 301.730,139.400 302.000,139.156 302.000 C 138.542 302.000,136.815 303.690,136.807 304.300 C 136.803 304.575,136.524 304.800,136.187 304.800 C 135.851 304.800,135.471 305.070,135.345 305.400 C 135.218 305.730,134.864 306.000,134.557 306.000 C 134.251 306.000,134.000 306.270,134.000 306.600 C 134.000 306.930,133.730 307.200,133.400 307.200 C 133.067 307.200,132.800 307.556,132.800 308.000 C 132.800 308.533,132.533 308.800,132.000 308.800 C 131.556 308.800,131.200 309.067,131.200 309.400 C 131.200 309.730,131.030 310.000,130.822 310.000 C 130.615 310.000,129.760 310.629,128.922 311.398 C 128.085 312.167,127.255 312.797,127.077 312.798 C 126.900 312.799,125.892 313.700,124.837 314.800 C 123.783 315.900,122.713 316.800,122.460 316.800 C 122.207 316.800,122.000 317.070,122.000 317.400 C 122.000 317.730,121.730 318.000,121.400 318.000 C 121.070 318.000,120.800 318.270,120.800 318.600 C 120.800 318.930,120.513 319.200,120.163 319.200 C 119.812 319.200,119.431 319.560,119.316 320.000 C 119.201 320.440,118.858 320.800,118.553 320.800 C 118.249 320.800,118.000 321.070,118.000 321.400 C 118.000 321.730,117.750 322.000,117.445 322.000 C 117.012 322.000,116.826 320.765,116.598 316.370 C 116.380 312.150,116.168 310.686,115.753 310.527 C 115.289 310.349,115.200 305.675,115.200 281.557 L 115.200 252.800 98.600 252.800 L 82.000 252.800 82.000 194.600 L 82.000 136.400 84.213 136.400 C 85.810 136.400,86.489 136.233,86.655 135.800 C 86.854 135.283,88.761 135.200,100.443 135.200 C 112.350 135.200,114.000 135.125,114.000 134.587 C 114.000 134.251,114.270 133.871,114.600 133.745 C 115.127 133.543,115.200 129.444,115.200 100.200 C 115.200 72.427,115.291 66.851,115.746 66.676 C 116.120 66.533,116.381 65.324,116.576 62.833 C 116.856 59.256,117.385 58.286,118.280 59.708 C 118.456 59.988,119.095 60.434,119.700 60.700 C 120.305 60.965,120.800 61.367,120.800 61.591 C 120.800 61.816,121.070 62.000,121.400 62.000 C 121.730 62.000,122.000 62.270,122.000 62.600 C 122.000 62.930,122.270 63.200,122.600 63.200 C 122.930 63.200,123.200 63.487,123.200 63.837 C 123.200 64.188,123.560 64.569,124.000 64.684 C 124.440 64.799,124.800 65.142,124.800 65.447 C 124.800 65.751,125.070 66.000,125.400 66.000 C 125.730 66.000,126.000 66.270,126.000 66.600 C 126.000 66.930,126.239 67.200,126.530 67.200 C 126.822 67.200,127.586 67.830,128.228 68.600 C 128.870 69.370,129.622 70.000,129.898 70.000 C 130.174 70.000,130.400 70.184,130.400 70.410 C 130.400 70.635,130.855 70.993,131.410 71.204 C 131.966 71.415,132.525 71.861,132.653 72.194 C 132.781 72.527,133.136 72.800,133.443 72.800 C 133.749 72.800,134.000 73.070,134.000 73.400 C 134.000 73.730,134.270 74.000,134.600 74.000 C 134.930 74.000,135.200 74.270,135.200 74.600 C 135.200 74.933,135.556 75.200,136.000 75.200 C 136.452 75.200,136.800 75.467,136.800 75.813 C 136.800 76.149,137.070 76.529,137.400 76.655 C 137.730 76.782,138.000 77.136,138.000 77.443 C 138.000 77.749,138.251 78.000,138.557 78.000 C 138.864 78.000,139.218 78.270,139.345 78.600 C 139.471 78.930,139.851 79.200,140.187 79.200 C 140.524 79.200,140.800 79.371,140.800 79.579 C 140.800 80.008,142.560 82.000,142.939 82.000 C 143.074 82.000,143.864 82.622,144.693 83.383 C 147.350 85.821,147.589 86.000,148.200 86.000 C 148.530 86.000,148.800 86.270,148.800 86.600 C 148.800 86.930,149.070 87.200,149.400 87.200 C 149.730 87.200,150.000 87.400,150.000 87.644 C 150.000 88.258,151.690 89.985,152.300 89.993 C 152.575 89.997,152.800 90.270,152.800 90.600 C 152.800 90.930,153.070 91.200,153.400 91.200 C 153.730 91.200,154.000 91.372,154.000 91.582 C 154.000 91.792,154.458 92.422,155.018 92.982 C 155.578 93.542,156.208 94.000,156.418 94.000 C 156.628 94.000,156.800 94.270,156.800 94.600 C 156.800 94.930,156.977 95.200,157.193 95.200 C 157.409 95.200,158.234 95.830,159.027 96.600 C 159.820 97.370,160.729 98.000,161.047 98.000 C 161.365 98.000,161.729 98.270,161.855 98.600 C 161.982 98.930,162.336 99.200,162.643 99.200 C 162.949 99.200,163.200 99.487,163.200 99.837 C 163.200 100.188,163.560 100.569,164.000 100.684 C 164.440 100.799,164.800 101.142,164.800 101.447 C 164.800 101.751,165.070 102.000,165.400 102.000 C 165.730 102.000,166.000 102.270,166.000 102.600 C 166.000 102.930,166.270 103.200,166.600 103.200 C 166.930 103.200,167.200 103.487,167.200 103.837 C 167.200 104.188,167.560 104.569,168.000 104.684 C 168.440 104.799,168.800 105.142,168.800 105.447 C 168.800 105.751,169.070 106.000,169.400 106.000 C 169.730 106.000,170.000 106.270,170.000 106.600 C 170.000 106.930,170.226 107.200,170.501 107.200 C 170.777 107.200,171.812 108.100,172.800 109.200 C 173.788 110.300,174.733 111.200,174.899 111.200 C 175.064 111.200,175.560 111.515,176.000 111.900 C 176.440 112.285,177.160 112.915,177.600 113.300 C 178.040 113.685,178.580 114.000,178.800 114.000 C 179.020 114.000,179.200 114.270,179.200 114.600 C 179.200 114.933,179.556 115.200,180.000 115.200 C 180.533 115.200,180.800 115.467,180.800 116.000 C 180.800 116.444,181.067 116.800,181.400 116.800 C 181.730 116.800,182.000 117.070,182.000 117.400 C 182.000 117.730,182.251 118.000,182.557 118.000 C 182.864 118.000,183.218 118.270,183.345 118.600 C 183.471 118.930,183.851 119.200,184.187 119.200 C 184.524 119.200,184.800 119.408,184.800 119.662 C 184.800 120.207,187.860 123.200,188.417 123.200 C 188.628 123.200,188.800 123.470,188.800 123.800 C 188.800 124.130,189.049 124.400,189.353 124.400 C 189.658 124.400,190.001 124.760,190.116 125.200 C 190.353 126.106,193.010 126.344,194.426 125.586 C 195.182 125.181,195.200 124.373,195.200 90.786 L 195.200 56.400 200.000 56.400 L 204.800 56.400 204.800 89.800 M125.600 80.372 C 125.600 80.577,125.195 80.802,124.700 80.872 C 123.632 81.024,123.253 89.953,124.300 90.301 C 124.692 90.431,124.800 95.135,124.800 112.033 C 124.800 133.067,124.820 133.620,125.600 134.400 C 126.384 135.184,126.933 135.200,153.014 135.200 C 176.807 135.200,179.732 135.268,180.611 135.844 C 181.845 136.652,183.376 136.314,184.204 135.050 C 184.878 134.022,184.635 132.800,183.757 132.800 C 183.451 132.800,183.200 132.440,183.200 132.000 C 183.200 131.556,182.933 131.200,182.600 131.200 C 182.270 131.200,182.000 130.930,182.000 130.600 C 182.000 130.270,181.749 130.000,181.443 130.000 C 181.136 130.000,180.782 129.730,180.655 129.400 C 180.529 129.070,180.149 128.800,179.813 128.800 C 179.476 128.800,179.200 128.524,179.200 128.187 C 179.200 127.851,178.930 127.471,178.600 127.345 C 178.270 127.218,178.000 126.864,178.000 126.557 C 178.000 126.251,177.749 126.000,177.443 126.000 C 177.136 126.000,176.782 125.730,176.655 125.400 C 176.529 125.070,176.149 124.800,175.813 124.800 C 175.476 124.800,175.200 124.629,175.200 124.421 C 175.200 123.870,173.388 122.000,172.854 122.000 C 172.604 122.000,172.400 121.730,172.400 121.400 C 172.400 121.070,172.221 120.800,172.002 120.800 C 171.783 120.800,170.685 119.900,169.561 118.800 C 168.438 117.700,167.279 116.800,166.986 116.800 C 166.694 116.800,166.340 116.440,166.200 116.000 C 166.060 115.560,165.707 115.200,165.416 115.200 C 165.124 115.200,164.782 114.930,164.655 114.600 C 164.529 114.270,164.149 114.000,163.813 114.000 C 163.476 114.000,163.200 113.730,163.200 113.400 C 163.200 113.070,162.930 112.800,162.600 112.800 C 162.270 112.800,161.997 112.575,161.993 112.300 C 161.985 111.690,160.258 110.000,159.644 110.000 C 159.400 110.000,159.200 109.730,159.200 109.400 C 159.200 109.070,158.930 108.800,158.600 108.800 C 158.270 108.800,158.000 108.628,158.000 108.418 C 158.000 107.922,156.078 106.000,155.582 106.000 C 155.372 106.000,155.200 105.730,155.200 105.400 C 155.200 105.070,155.023 104.800,154.807 104.800 C 154.591 104.800,153.766 104.170,152.973 103.400 C 152.180 102.630,151.271 102.000,150.953 102.000 C 150.635 102.000,150.271 101.730,150.145 101.400 C 150.018 101.070,149.685 100.800,149.404 100.800 C 149.123 100.800,148.799 100.440,148.684 100.000 C 148.569 99.560,148.188 99.200,147.837 99.200 C 147.487 99.200,147.200 98.930,147.200 98.600 C 147.200 98.270,146.930 98.000,146.600 98.000 C 146.270 98.000,146.000 97.730,146.000 97.400 C 146.000 97.070,145.828 96.800,145.618 96.800 C 145.122 96.800,143.200 94.878,143.200 94.382 C 143.200 94.172,142.949 94.000,142.643 94.000 C 142.336 94.000,141.982 93.730,141.855 93.400 C 141.729 93.070,141.349 92.800,141.013 92.800 C 140.676 92.800,140.400 92.530,140.400 92.200 C 140.400 91.870,140.230 91.600,140.022 91.600 C 139.815 91.600,138.960 90.971,138.122 90.202 C 137.285 89.433,136.285 88.803,135.900 88.802 C 135.467 88.801,135.200 88.495,135.200 88.000 C 135.200 87.556,134.933 87.200,134.600 87.200 C 134.270 87.200,134.000 86.930,134.000 86.600 C 134.000 86.270,133.730 86.000,133.400 86.000 C 133.070 86.000,132.800 85.730,132.800 85.400 C 132.800 85.067,132.444 84.800,132.000 84.800 C 131.548 84.800,131.200 84.533,131.200 84.187 C 131.200 83.851,130.930 83.471,130.600 83.345 C 130.270 83.218,130.000 82.864,130.000 82.557 C 130.000 82.251,129.749 82.000,129.443 82.000 C 129.136 82.000,128.782 81.730,128.655 81.400 C 128.529 81.070,127.969 80.800,127.413 80.800 C 126.856 80.800,126.400 80.620,126.400 80.400 C 126.400 80.180,126.220 80.000,126.000 80.000 C 125.780 80.000,125.600 80.167,125.600 80.372 M276.800 81.378 C 276.800 81.720,276.530 82.000,276.200 82.000 C 275.870 82.000,275.240 82.315,274.800 82.700 C 274.360 83.085,273.640 83.715,273.200 84.100 C 272.760 84.485,272.220 84.800,272.000 84.800 C 271.780 84.800,271.600 85.070,271.600 85.400 C 271.600 85.730,271.400 86.000,271.156 86.000 C 270.542 86.000,268.815 87.690,268.807 88.300 C 268.803 88.575,268.440 88.800,268.000 88.800 C 267.556 88.800,267.200 89.067,267.200 89.400 C 267.200 89.730,267.020 90.000,266.800 90.000 C 266.580 90.000,266.040 90.360,265.600 90.800 C 265.160 91.240,264.530 91.600,264.200 91.600 C 263.870 91.600,263.600 91.870,263.600 92.200 C 263.600 92.530,263.324 92.800,262.987 92.800 C 262.651 92.800,262.271 93.070,262.145 93.400 C 262.018 93.730,261.664 94.000,261.357 94.000 C 261.051 94.000,260.800 94.249,260.800 94.553 C 260.800 94.858,260.440 95.201,260.000 95.316 C 259.560 95.431,259.200 95.812,259.200 96.163 C 259.200 96.513,258.930 96.800,258.600 96.800 C 258.270 96.800,258.000 97.070,258.000 97.400 C 258.000 97.730,257.767 98.000,257.481 98.000 C 256.955 98.000,255.717 98.831,254.353 100.100 C 253.939 100.485,253.420 100.800,253.200 100.800 C 252.980 100.800,252.800 101.070,252.800 101.400 C 252.800 101.730,252.600 102.000,252.356 102.000 C 251.742 102.000,250.015 103.690,250.007 104.300 C 250.003 104.575,249.730 104.800,249.400 104.800 C 249.070 104.800,248.800 105.070,248.800 105.400 C 248.800 105.730,248.468 106.000,248.062 106.000 C 247.656 106.000,246.998 106.360,246.600 106.800 C 246.202 107.240,245.634 107.600,245.338 107.600 C 245.042 107.600,244.800 107.870,244.800 108.200 C 244.800 108.530,244.549 108.800,244.243 108.800 C 243.936 108.800,243.582 109.070,243.455 109.400 C 243.329 109.730,242.949 110.000,242.613 110.000 C 242.276 110.000,242.000 110.270,242.000 110.600 C 242.000 110.930,241.730 111.200,241.400 111.200 C 241.067 111.200,240.800 111.556,240.800 112.000 C 240.800 112.533,240.533 112.800,240.000 112.800 C 239.556 112.800,239.200 113.067,239.200 113.400 C 239.200 113.730,238.930 114.000,238.600 114.000 C 238.270 114.000,237.640 114.360,237.200 114.800 C 236.760 115.240,236.220 115.600,236.000 115.600 C 235.780 115.600,235.600 115.870,235.600 116.200 C 235.600 116.533,235.244 116.800,234.800 116.800 C 234.356 116.800,234.000 117.067,234.000 117.400 C 234.000 117.730,233.730 118.000,233.400 118.000 C 233.070 118.000,232.800 118.249,232.800 118.553 C 232.800 118.858,232.440 119.201,232.000 119.316 C 231.560 119.431,231.200 119.812,231.200 120.163 C 231.200 120.513,230.930 120.800,230.600 120.800 C 230.270 120.800,230.000 121.070,230.000 121.400 C 230.000 121.734,229.644 122.000,229.196 122.000 C 228.754 122.000,228.084 122.360,227.707 122.800 C 227.330 123.240,226.792 123.600,226.511 123.600 C 226.230 123.600,226.000 123.870,226.000 124.200 C 226.000 124.530,225.730 124.800,225.400 124.800 C 225.070 124.800,224.800 125.070,224.800 125.400 C 224.800 125.730,224.575 126.003,224.300 126.007 C 223.690 126.015,222.000 127.742,222.000 128.356 C 222.000 128.600,221.730 128.800,221.400 128.800 C 221.070 128.800,220.800 128.962,220.800 129.161 C 220.800 129.359,220.267 129.707,219.616 129.934 C 218.040 130.484,216.929 132.947,217.651 134.295 L 218.138 135.205 249.369 135.102 L 280.600 135.000 280.808 130.116 C 280.923 127.430,280.923 115.280,280.808 103.116 L 280.600 81.000 278.700 80.878 C 277.196 80.782,276.800 80.886,276.800 81.378 M92.800 193.400 L 92.800 242.000 104.000 242.000 L 115.200 242.000 115.200 230.000 C 115.200 221.480,115.329 218.000,115.644 218.000 C 116.258 218.000,117.985 216.310,117.993 215.700 C 117.997 215.425,118.270 215.200,118.600 215.200 C 118.930 215.200,119.200 214.930,119.200 214.600 C 119.200 214.270,119.400 214.000,119.644 214.000 C 120.258 214.000,121.985 212.310,121.993 211.700 C 121.997 211.425,122.270 211.200,122.600 211.200 C 122.930 211.200,123.200 210.930,123.200 210.600 C 123.200 210.270,123.400 210.000,123.644 210.000 C 124.258 210.000,125.985 208.310,125.993 207.700 C 125.997 207.425,126.270 207.200,126.600 207.200 C 126.930 207.200,127.200 206.930,127.200 206.600 C 127.200 206.270,127.400 206.000,127.644 206.000 C 128.258 206.000,129.985 204.310,129.993 203.700 C 129.997 203.425,130.270 203.200,130.600 203.200 C 130.930 203.200,131.200 202.930,131.200 202.600 C 131.200 202.270,131.400 202.000,131.644 202.000 C 132.258 202.000,133.985 200.310,133.993 199.700 C 133.997 199.425,134.270 199.200,134.600 199.200 C 134.930 199.200,135.200 198.930,135.200 198.600 C 135.200 198.270,135.400 198.000,135.644 198.000 C 136.258 198.000,137.985 196.310,137.993 195.700 C 137.997 195.425,138.270 195.200,138.600 195.200 C 138.930 195.200,139.200 194.930,139.200 194.600 C 139.200 194.270,139.425 193.997,139.700 193.993 C 140.310 193.985,142.000 192.258,142.000 191.644 C 142.000 191.400,142.270 191.200,142.600 191.200 C 142.930 191.200,143.200 190.930,143.200 190.600 C 143.200 190.270,143.425 189.997,143.700 189.993 C 144.310 189.985,146.000 188.258,146.000 187.644 C 146.000 187.400,146.270 187.200,146.600 187.200 C 146.930 187.200,147.200 186.930,147.200 186.600 C 147.200 186.270,147.425 185.997,147.700 185.993 C 148.310 185.985,150.000 184.258,150.000 183.644 C 150.000 183.400,150.270 183.200,150.600 183.200 C 150.930 183.200,151.200 182.930,151.200 182.600 C 151.200 182.270,151.425 181.997,151.700 181.993 C 152.310 181.985,154.000 180.258,154.000 179.644 C 154.000 179.400,154.270 179.200,154.600 179.200 C 154.930 179.200,155.200 178.930,155.200 178.600 C 155.200 178.270,155.425 177.997,155.700 177.993 C 156.310 177.985,158.000 176.258,158.000 175.644 C 158.000 175.400,158.270 175.200,158.600 175.200 C 158.930 175.200,159.200 174.930,159.200 174.600 C 159.200 174.270,159.425 173.997,159.700 173.993 C 160.310 173.985,162.000 172.258,162.000 171.644 C 162.000 171.400,162.270 171.200,162.600 171.200 C 162.930 171.200,163.200 170.930,163.200 170.600 C 163.200 170.270,163.425 169.997,163.700 169.993 C 164.310 169.985,166.000 168.258,166.000 167.644 C 166.000 167.400,166.270 167.200,166.600 167.200 C 166.930 167.200,167.200 166.930,167.200 166.600 C 167.200 166.270,167.425 165.997,167.700 165.993 C 168.310 165.985,170.000 164.258,170.000 163.644 C 170.000 163.400,170.270 163.200,170.600 163.200 C 170.930 163.200,171.200 162.930,171.200 162.600 C 171.200 162.270,171.372 162.000,171.582 162.000 C 172.078 162.000,174.000 160.078,174.000 159.582 C 174.000 159.372,174.270 159.200,174.600 159.200 C 174.930 159.200,175.200 158.930,175.200 158.600 C 175.200 158.270,175.470 158.000,175.800 158.000 C 176.130 158.000,176.400 157.774,176.400 157.498 C 176.400 157.222,177.030 156.470,177.800 155.828 C 178.570 155.186,179.200 154.505,179.200 154.314 C 179.200 154.123,179.560 153.580,180.000 153.108 C 180.440 152.636,180.800 152.013,180.800 151.725 C 180.800 151.436,181.070 151.200,181.400 151.200 C 181.730 151.200,182.000 150.930,182.000 150.600 C 182.000 150.270,182.270 150.000,182.600 150.000 C 183.053 150.000,183.200 149.511,183.200 148.000 L 183.200 146.000 181.629 146.000 C 180.764 146.000,179.787 145.730,179.457 145.400 C 178.931 144.874,173.543 144.800,135.829 144.800 L 92.800 144.800 92.800 193.400 M219.857 145.400 C 219.527 145.730,218.704 146.000,218.029 146.000 C 216.603 146.000,216.148 149.291,217.400 150.543 C 217.730 150.873,218.000 151.329,218.000 151.557 C 218.000 151.785,218.360 152.165,218.800 152.400 C 219.240 152.635,219.600 153.092,219.600 153.414 C 219.600 153.736,219.870 154.000,220.200 154.000 C 220.530 154.000,220.800 154.270,220.800 154.600 C 220.800 154.930,221.070 155.200,221.400 155.200 C 221.730 155.200,222.000 155.371,222.000 155.579 C 222.000 156.130,223.812 158.000,224.346 158.000 C 224.596 158.000,224.800 158.270,224.800 158.600 C 224.800 158.930,225.070 159.200,225.400 159.200 C 225.730 159.200,226.003 159.425,226.007 159.700 C 226.015 160.310,227.742 162.000,228.356 162.000 C 228.600 162.000,228.800 162.270,228.800 162.600 C 228.800 162.930,229.070 163.200,229.400 163.200 C 229.730 163.200,230.003 163.425,230.007 163.700 C 230.015 164.310,231.742 166.000,232.356 166.000 C 232.600 166.000,232.800 166.270,232.800 166.600 C 232.800 166.930,233.070 167.200,233.400 167.200 C 233.730 167.200,234.003 167.425,234.007 167.700 C 234.015 168.310,235.742 170.000,236.356 170.000 C 236.600 170.000,236.800 170.270,236.800 170.600 C 236.800 170.930,237.070 171.200,237.400 171.200 C 237.730 171.200,238.000 171.400,238.000 171.644 C 238.000 172.258,239.690 173.985,240.300 173.993 C 240.575 173.997,240.800 174.270,240.800 174.600 C 240.800 174.930,241.070 175.200,241.400 175.200 C 241.730 175.200,242.000 175.400,242.000 175.644 C 242.000 176.258,243.690 177.985,244.300 177.993 C 244.575 177.997,244.800 178.270,244.800 178.600 C 244.800 178.930,245.070 179.200,245.400 179.200 C 245.730 179.200,246.003 179.425,246.007 179.700 C 246.015 180.310,247.742 182.000,248.356 182.000 C 248.600 182.000,248.800 182.270,248.800 182.600 C 248.800 182.930,249.070 183.200,249.400 183.200 C 249.730 183.200,250.003 183.425,250.007 183.700 C 250.015 184.310,251.742 186.000,252.356 186.000 C 252.600 186.000,252.800 186.270,252.800 186.600 C 252.800 186.930,253.070 187.200,253.400 187.200 C 253.730 187.200,254.003 187.425,254.007 187.700 C 254.015 188.310,255.742 190.000,256.356 190.000 C 256.600 190.000,256.800 190.270,256.800 190.600 C 256.800 190.930,257.070 191.200,257.400 191.200 C 257.730 191.200,258.003 191.425,258.007 191.700 C 258.015 192.310,259.742 194.000,260.356 194.000 C 260.600 194.000,260.800 194.270,260.800 194.600 C 260.800 194.930,261.070 195.200,261.400 195.200 C 261.730 195.200,262.003 195.425,262.007 195.700 C 262.015 196.310,263.742 198.000,264.356 198.000 C 264.600 198.000,264.800 198.270,264.800 198.600 C 264.800 198.930,265.070 199.200,265.400 199.200 C 265.730 199.200,266.003 199.425,266.007 199.700 C 266.015 200.310,267.742 202.000,268.356 202.000 C 268.600 202.000,268.800 202.270,268.800 202.600 C 268.800 202.930,269.070 203.200,269.400 203.200 C 269.730 203.200,270.003 203.425,270.007 203.700 C 270.015 204.310,271.742 206.000,272.356 206.000 C 272.600 206.000,272.800 206.270,272.800 206.600 C 272.800 206.930,273.070 207.200,273.400 207.200 C 273.730 207.200,274.003 207.425,274.007 207.700 C 274.015 208.310,275.742 210.000,276.356 210.000 C 276.600 210.000,276.800 210.270,276.800 210.600 C 276.800 210.930,277.070 211.200,277.400 211.200 C 277.730 211.200,278.003 211.425,278.007 211.700 C 278.015 212.310,279.742 214.000,280.356 214.000 C 280.600 214.000,280.800 214.270,280.800 214.600 C 280.800 214.930,281.070 215.200,281.400 215.200 C 281.730 215.200,282.000 215.461,282.000 215.780 C 282.000 216.099,282.315 216.536,282.700 216.752 C 283.337 217.108,283.411 218.177,283.518 228.591 C 283.616 238.167,283.731 240.075,284.218 240.262 C 284.538 240.385,284.800 240.826,284.800 241.243 C 284.800 241.968,285.278 242.000,296.000 242.000 L 307.200 242.000 307.200 193.400 L 307.200 144.800 263.829 144.800 C 225.810 144.800,220.383 144.874,219.857 145.400 M190.000 157.400 C 190.000 157.730,189.730 158.000,189.400 158.000 C 189.070 158.000,188.800 158.249,188.800 158.553 C 188.800 158.858,188.440 159.201,188.000 159.316 C 187.560 159.431,187.200 159.812,187.200 160.163 C 187.200 160.513,186.967 160.800,186.681 160.800 C 185.973 160.800,184.815 161.729,181.569 164.900 C 180.049 166.385,178.624 167.600,178.403 167.600 C 178.181 167.600,178.000 167.870,178.000 168.200 C 178.000 168.530,177.730 168.800,177.400 168.800 C 177.070 168.800,176.800 169.070,176.800 169.400 C 176.800 169.730,176.628 170.000,176.418 170.000 C 176.208 170.000,175.578 170.458,175.018 171.018 C 174.458 171.578,174.000 172.208,174.000 172.418 C 174.000 172.628,173.730 172.800,173.400 172.800 C 173.070 172.800,172.800 173.070,172.800 173.400 C 172.800 173.730,172.628 174.000,172.418 174.000 C 172.208 174.000,171.578 174.458,171.018 175.018 C 170.458 175.578,170.000 176.208,170.000 176.418 C 170.000 176.628,169.730 176.800,169.400 176.800 C 169.070 176.800,168.800 177.070,168.800 177.400 C 168.800 177.730,168.575 178.003,168.300 178.007 C 167.690 178.015,166.000 179.742,166.000 180.356 C 166.000 180.600,165.730 180.800,165.400 180.800 C 165.070 180.800,164.800 181.070,164.800 181.400 C 164.800 181.730,164.575 182.003,164.300 182.007 C 163.690 182.015,162.000 183.742,162.000 184.356 C 162.000 184.600,161.730 184.800,161.400 184.800 C 161.070 184.800,160.800 185.070,160.800 185.400 C 160.800 185.730,160.575 186.003,160.300 186.007 C 159.690 186.015,158.000 187.742,158.000 188.356 C 158.000 188.600,157.730 188.800,157.400 188.800 C 157.070 188.800,156.800 189.070,156.800 189.400 C 156.800 189.730,156.575 190.003,156.300 190.007 C 155.690 190.015,154.000 191.742,154.000 192.356 C 154.000 192.600,153.730 192.800,153.400 192.800 C 153.070 192.800,152.800 193.070,152.800 193.400 C 152.800 193.730,152.575 194.003,152.300 194.007 C 151.690 194.015,150.000 195.742,150.000 196.356 C 150.000 196.600,149.730 196.800,149.400 196.800 C 149.070 196.800,148.800 197.070,148.800 197.400 C 148.800 197.730,148.575 198.003,148.300 198.007 C 147.690 198.015,146.000 199.742,146.000 200.356 C 146.000 200.600,145.730 200.800,145.400 200.800 C 145.070 200.800,144.800 201.070,144.800 201.400 C 144.800 201.730,144.575 202.003,144.300 202.007 C 143.690 202.015,142.000 203.742,142.000 204.356 C 142.000 204.600,141.730 204.800,141.400 204.800 C 141.070 204.800,140.800 205.070,140.800 205.400 C 140.800 205.730,140.575 206.003,140.300 206.007 C 139.690 206.015,138.000 207.742,138.000 208.356 C 138.000 208.600,137.730 208.800,137.400 208.800 C 137.070 208.800,136.800 209.070,136.800 209.400 C 136.800 209.730,136.628 210.000,136.418 210.000 C 135.922 210.000,134.000 211.922,134.000 212.418 C 134.000 212.628,133.730 212.800,133.400 212.800 C 133.070 212.800,132.800 213.070,132.800 213.400 C 132.800 213.730,132.628 214.000,132.418 214.000 C 131.922 214.000,130.000 215.922,130.000 216.418 C 130.000 216.628,129.730 216.800,129.400 216.800 C 129.070 216.800,128.800 217.070,128.800 217.400 C 128.800 217.730,128.628 218.000,128.418 218.000 C 127.922 218.000,126.000 219.922,126.000 220.418 C 126.000 220.628,125.729 220.800,125.398 220.800 C 124.865 220.800,124.808 225.309,124.898 259.900 L 125.000 299.000 126.955 299.124 C 128.774 299.240,128.992 299.149,130.084 297.824 C 130.730 297.041,131.515 296.400,131.829 296.400 C 132.143 296.400,132.400 296.130,132.400 295.800 C 132.400 295.470,132.609 295.200,132.864 295.200 C 133.118 295.200,134.204 294.300,135.275 293.200 C 136.347 292.100,137.398 291.200,137.612 291.200 C 137.825 291.200,138.000 290.930,138.000 290.600 C 138.000 290.270,138.270 290.000,138.600 290.000 C 138.930 290.000,139.200 289.730,139.200 289.400 C 139.200 289.070,139.487 288.800,139.837 288.800 C 140.188 288.800,140.569 288.440,140.684 288.000 C 140.799 287.560,141.142 287.200,141.447 287.200 C 141.751 287.200,142.000 286.930,142.000 286.600 C 142.000 286.270,142.180 286.000,142.400 286.000 C 142.620 286.000,143.160 285.685,143.600 285.300 C 144.040 284.915,144.760 284.285,145.200 283.900 C 145.640 283.515,146.149 283.200,146.330 283.200 C 146.512 283.200,147.186 282.570,147.828 281.800 C 148.470 281.030,149.222 280.400,149.498 280.400 C 149.774 280.400,150.000 280.130,150.000 279.800 C 150.000 279.470,150.270 279.200,150.600 279.200 C 150.930 279.200,151.200 278.930,151.200 278.600 C 151.200 278.270,151.425 277.997,151.700 277.993 C 152.310 277.985,154.000 276.258,154.000 275.644 C 154.000 275.400,154.270 275.200,154.600 275.200 C 154.930 275.200,155.200 274.930,155.200 274.600 C 155.200 274.270,155.476 274.000,155.813 274.000 C 156.149 274.000,156.529 273.730,156.655 273.400 C 156.782 273.070,157.136 272.800,157.443 272.800 C 157.749 272.800,158.000 272.460,158.000 272.043 C 158.000 271.587,158.366 271.195,158.921 271.056 C 159.428 270.928,160.373 270.284,161.021 269.623 C 161.670 268.963,162.425 268.417,162.700 268.411 C 162.975 268.405,163.200 268.130,163.200 267.800 C 163.200 267.470,163.372 267.200,163.583 267.200 C 164.140 267.200,167.200 264.207,167.200 263.662 C 167.200 263.408,167.476 263.200,167.813 263.200 C 168.149 263.200,168.529 262.930,168.655 262.600 C 168.782 262.270,169.136 262.000,169.443 262.000 C 169.749 262.000,170.000 261.730,170.000 261.400 C 170.000 261.070,170.270 260.800,170.600 260.800 C 170.933 260.800,171.200 260.444,171.200 260.000 C 171.200 259.467,171.467 259.200,172.000 259.200 C 172.444 259.200,172.800 258.933,172.800 258.600 C 172.800 258.270,173.042 258.000,173.338 258.000 C 173.634 258.000,174.202 257.640,174.600 257.200 C 174.998 256.760,175.566 256.400,175.862 256.400 C 176.158 256.400,176.400 256.130,176.400 255.800 C 176.400 255.470,176.609 255.200,176.864 255.200 C 177.118 255.200,178.204 254.300,179.275 253.200 C 180.347 252.100,181.398 251.200,181.612 251.200 C 181.825 251.200,182.000 250.930,182.000 250.600 C 182.000 250.270,182.270 250.000,182.600 250.000 C 182.930 250.000,183.200 249.751,183.200 249.447 C 183.200 249.142,183.560 248.799,184.000 248.684 C 184.440 248.569,184.800 248.188,184.800 247.837 C 184.800 247.487,185.070 247.200,185.400 247.200 C 185.730 247.200,186.000 246.930,186.000 246.600 C 186.000 246.270,186.270 246.000,186.600 246.000 C 186.930 246.000,187.200 245.730,187.200 245.400 C 187.200 245.070,187.464 244.800,187.786 244.800 C 188.108 244.800,188.565 244.440,188.800 244.000 C 189.035 243.560,189.551 243.200,189.945 243.200 C 190.339 243.200,191.186 242.570,191.828 241.800 C 192.470 241.030,193.222 240.400,193.498 240.400 C 193.774 240.400,194.000 240.130,194.000 239.800 C 194.000 239.470,194.270 239.200,194.600 239.200 C 195.129 239.200,195.200 234.559,195.200 199.829 C 195.200 165.365,195.125 160.382,194.600 159.857 C 194.270 159.527,194.000 158.704,194.000 158.029 C 194.000 156.821,193.966 156.800,192.000 156.800 C 190.489 156.800,190.000 156.947,190.000 157.400 M205.500 157.633 C 204.843 158.353,204.800 160.930,204.800 199.790 L 204.800 241.179 206.000 241.800 C 206.660 242.141,207.200 242.596,207.200 242.810 C 207.200 243.025,207.560 243.200,208.000 243.200 C 208.533 243.200,208.800 243.467,208.800 244.000 C 208.800 244.444,209.067 244.800,209.400 244.800 C 209.730 244.800,210.000 245.070,210.000 245.400 C 210.000 245.730,210.251 246.000,210.557 246.000 C 210.864 246.000,211.218 246.270,211.345 246.600 C 211.471 246.930,211.851 247.200,212.187 247.200 C 212.524 247.200,212.803 247.425,212.807 247.700 C 212.815 248.288,214.532 250.000,215.114 250.000 C 215.334 250.000,215.618 250.270,215.745 250.600 C 215.871 250.930,216.207 251.200,216.491 251.200 C 216.775 251.200,217.232 251.560,217.507 252.000 C 217.782 252.440,218.256 252.800,218.561 252.800 C 218.865 252.800,219.218 253.070,219.345 253.400 C 219.471 253.730,219.851 254.000,220.187 254.000 C 220.524 254.000,220.800 254.270,220.800 254.600 C 220.800 254.930,221.070 255.200,221.400 255.200 C 221.730 255.200,222.003 255.425,222.007 255.700 C 222.015 256.310,223.742 258.000,224.356 258.000 C 224.600 258.000,224.800 258.270,224.800 258.600 C 224.800 258.930,224.977 259.200,225.193 259.200 C 225.409 259.200,226.234 259.830,227.027 260.600 C 227.820 261.370,228.729 262.000,229.047 262.000 C 229.365 262.000,229.729 262.270,229.855 262.600 C 229.982 262.930,230.315 263.200,230.596 263.200 C 230.877 263.200,231.201 263.560,231.316 264.000 C 231.431 264.440,231.812 264.800,232.163 264.800 C 232.513 264.800,232.800 265.070,232.800 265.400 C 232.800 265.730,233.070 266.000,233.400 266.000 C 233.730 266.000,234.000 266.270,234.000 266.600 C 234.000 266.930,234.172 267.200,234.382 267.200 C 234.878 267.200,236.800 269.122,236.800 269.618 C 236.800 269.828,237.070 270.000,237.400 270.000 C 237.730 270.000,238.000 270.186,238.000 270.413 C 238.000 270.639,238.301 270.941,238.669 271.082 C 239.038 271.223,239.713 271.668,240.169 272.069 C 242.087 273.756,242.419 274.000,242.800 274.000 C 243.020 274.000,243.200 274.270,243.200 274.600 C 243.200 274.933,243.556 275.200,244.000 275.200 C 244.533 275.200,244.800 275.467,244.800 276.000 C 244.800 276.444,245.067 276.800,245.400 276.800 C 245.730 276.800,246.000 277.070,246.000 277.400 C 246.000 277.730,246.251 278.000,246.557 278.000 C 246.864 278.000,247.218 278.270,247.345 278.600 C 247.471 278.930,247.851 279.200,248.187 279.200 C 248.524 279.200,248.800 279.371,248.800 279.579 C 248.800 280.031,250.569 282.000,250.974 282.000 C 251.130 282.000,251.527 282.270,251.857 282.600 C 252.187 282.930,252.804 283.200,253.229 283.200 C 253.733 283.200,254.000 283.477,254.000 284.000 C 254.000 284.440,254.251 284.800,254.557 284.800 C 254.864 284.800,255.218 285.070,255.345 285.400 C 255.471 285.730,255.851 286.000,256.187 286.000 C 256.524 286.000,256.800 286.270,256.800 286.600 C 256.800 286.930,257.070 287.200,257.400 287.200 C 257.730 287.200,258.000 287.404,258.000 287.654 C 258.000 288.188,259.870 290.000,260.421 290.000 C 260.629 290.000,260.800 290.270,260.800 290.600 C 260.800 290.930,260.980 291.200,261.200 291.200 C 261.420 291.200,261.939 291.515,262.353 291.900 C 263.717 293.169,264.955 294.000,265.481 294.000 C 265.767 294.000,266.000 294.270,266.000 294.600 C 266.000 294.930,266.249 295.200,266.553 295.200 C 266.858 295.200,267.201 295.560,267.316 296.000 C 267.431 296.440,267.812 296.800,268.163 296.800 C 268.513 296.800,268.800 297.070,268.800 297.400 C 268.800 297.730,269.070 298.000,269.400 298.000 C 269.730 298.000,270.000 298.270,270.000 298.600 C 270.000 299.379,273.975 299.478,274.044 298.700 C 274.069 298.425,274.053 296.993,274.009 295.518 C 273.953 293.611,274.113 292.573,274.565 291.929 C 275.133 291.117,275.200 287.370,275.200 256.311 L 275.200 221.601 261.800 208.179 C 254.430 200.797,248.400 194.587,248.400 194.379 C 248.400 194.171,248.130 194.000,247.800 194.000 C 247.470 194.000,247.200 193.730,247.200 193.400 C 247.200 193.070,246.930 192.800,246.600 192.800 C 246.270 192.800,246.000 192.530,246.000 192.200 C 246.000 191.870,245.713 191.600,245.363 191.600 C 245.012 191.600,244.631 191.240,244.516 190.800 C 244.401 190.360,244.058 190.000,243.753 190.000 C 243.449 190.000,243.200 189.730,243.200 189.400 C 243.200 189.070,242.930 188.800,242.600 188.800 C 242.270 188.800,242.000 188.551,242.000 188.247 C 242.000 187.942,241.640 187.599,241.200 187.484 C 240.760 187.369,240.400 186.988,240.400 186.637 C 240.400 186.287,240.130 186.000,239.800 186.000 C 239.470 186.000,239.200 185.730,239.200 185.400 C 239.200 185.070,238.930 184.800,238.600 184.800 C 238.270 184.800,238.000 184.551,238.000 184.247 C 238.000 183.942,237.640 183.599,237.200 183.484 C 236.760 183.369,236.400 182.988,236.400 182.637 C 236.400 182.287,236.130 182.000,235.800 182.000 C 235.470 182.000,235.200 181.730,235.200 181.400 C 235.200 181.070,235.031 180.800,234.824 180.800 C 234.617 180.800,232.029 178.415,229.073 175.500 C 222.338 168.858,219.159 166.000,218.508 166.000 C 218.229 166.000,218.000 165.829,218.000 165.621 C 218.000 165.070,216.188 163.200,215.654 163.200 C 215.404 163.200,215.200 162.930,215.200 162.600 C 215.200 162.270,214.930 162.000,214.600 162.000 C 214.270 162.000,214.000 161.730,214.000 161.400 C 214.000 161.070,213.730 160.800,213.400 160.800 C 213.070 160.800,212.800 160.513,212.800 160.163 C 212.800 159.812,212.440 159.431,212.000 159.316 C 211.560 159.201,211.200 158.858,211.200 158.553 C 211.200 158.249,210.930 158.000,210.600 158.000 C 210.270 158.000,210.000 157.730,210.000 157.400 C 210.000 156.459,206.402 156.646,205.500 157.633 " stroke="none" fill="#040404" fill-rule="evenodd"></path><path id="path1" d="" stroke="none" fill="#080404" fill-rule="evenodd"></path><path id="path2" d="" stroke="none" fill="#080404" fill-rule="evenodd"></path><path id="path3" d="" stroke="none" fill="#080404" fill-rule="evenodd"></path><path id="path4" d="" stroke="none" fill="#080404" fill-rule="evenodd"></path></g></svg>