<?xml version="1.0" encoding="UTF-8"?>
<!DOCTYPE svg PUBLIC "-//W3C//DTD SVG 1.1//EN" "http://www.w3.org/Graphics/SVG/1.1/DTD/svg11.dtd">
<svg xmlns="http://www.w3.org/2000/svg" version="1.1" width="500px" height="500px" style="shape-rendering:geometricPrecision; text-rendering:geometricPrecision; image-rendering:optimizeQuality; fill-rule:evenodd; clip-rule:evenodd" xmlns:xlink="http://www.w3.org/1999/xlink">
<g><path style="opacity:0.983" fill="#000000" d="M -0.5,-0.5 C 166.167,-0.5 332.833,-0.5 499.5,-0.5C 499.5,166.167 499.5,332.833 499.5,499.5C 332.833,499.5 166.167,499.5 -0.5,499.5C -0.5,332.833 -0.5,166.167 -0.5,-0.5 Z M 243.5,68.5 C 247.169,69.7506 250.836,69.7506 254.5,68.5C 255.234,97.5062 255.901,126.506 256.5,155.5C 258.199,155.66 259.866,155.494 261.5,155C 295.177,126.731 329.01,98.5642 363,70.5C 364.239,102.814 364.906,135.147 365,167.5C 375.772,168.156 386.606,168.823 397.5,169.5C 396.169,218.03 396.169,266.53 397.5,315C 383.259,315.176 369.092,315.676 355,316.5C 354.807,345.856 354.307,374.856 353.5,403.5C 323.053,376.301 292.386,349.301 261.5,322.5C 257.684,320.797 255.85,322.13 256,326.5C 255.5,352.831 255.333,379.165 255.5,405.5C 251.5,405.5 247.5,405.5 243.5,405.5C 243.549,375.92 242.882,346.42 241.5,317C 240.833,316.333 240.167,316.333 239.5,317C 208.669,346.329 177.336,375.162 145.5,403.5C 144.671,398.533 144.171,393.533 144,388.5C 143.5,364.169 143.333,339.836 143.5,315.5C 129.167,315.5 114.833,315.5 100.5,315.5C 100.5,266.833 100.5,218.167 100.5,169.5C 114.494,168.789 128.494,168.122 142.5,167.5C 142.504,135.14 143.338,102.807 145,70.5C 176.957,99.2871 208.791,128.287 240.5,157.5C 241.086,157.291 241.586,156.957 242,156.5C 242.918,127.173 243.418,97.8396 243.5,68.5 Z"/></g>
<g><path style="opacity:0.854" fill="#000000" d="M 155.5,100.5 C 156.93,100.421 158.264,100.754 159.5,101.5C 182.043,122.546 204.709,143.379 227.5,164C 229.325,165.466 229.825,167.299 229,169.5C 204.956,168.592 180.789,167.925 156.5,167.5C 156.055,146.146 155.389,124.813 154.5,103.5C 154.685,102.416 155.018,101.416 155.5,100.5 Z"/></g>
<g><path style="opacity:0.855" fill="#000000" d="M 346.5,100.5 C 347.833,100.5 349.167,100.5 350.5,100.5C 350.5,123.167 350.5,145.833 350.5,168.5C 324.769,168.421 299.103,168.421 273.5,168.5C 272.119,168 271.453,167 271.5,165.5C 296.494,143.84 321.494,122.173 346.5,100.5 Z"/></g>
<g><path style="opacity:0.909" fill="#000000" d="M 115.5,180.5 C 152.85,180.119 190.183,180.619 227.5,182C 228.059,182.725 228.392,183.558 228.5,184.5C 201.535,214.132 173.535,242.799 144.5,270.5C 143.823,281.061 143.156,291.561 142.5,302C 133.588,302.816 124.755,302.65 116,301.5C 115.5,261.168 115.333,220.835 115.5,180.5 Z"/></g>
<g><path style="opacity:0.902" fill="#000000" d="M 287.5,180.5 C 319.5,180.5 351.5,180.5 383.5,180.5C 383.667,220.501 383.5,260.501 383,300.5C 374.099,302.456 364.932,303.122 355.5,302.5C 354.256,292.617 354.256,282.784 355.5,273C 327.415,244.247 299.249,215.414 271,186.5C 270.506,184.866 270.34,183.199 270.5,181.5C 276.358,181.822 282.025,181.489 287.5,180.5 Z"/></g>
<g><path style="opacity:0.92" fill="#000000" d="M 238.5,195.5 C 239.822,195.33 240.989,195.663 242,196.5C 243.549,229.817 243.882,263.15 243,296.5C 215.676,321.989 188.176,347.323 160.5,372.5C 159.232,373.428 157.899,373.595 156.5,373C 155.556,341.383 155.389,309.549 156,277.5C 182.728,249.387 210.228,222.053 238.5,195.5 Z"/></g>
<g><path style="opacity:0.924" fill="#000000" d="M 256.5,195.5 C 258.06,195.519 259.56,195.852 261,196.5C 288.617,223.117 315.95,250.117 343,277.5C 343.167,309.499 343,341.499 342.5,373.5C 340.738,373.643 339.071,373.309 337.5,372.5C 310.5,348.5 283.5,324.5 256.5,300.5C 255.222,265.492 255.222,230.492 256.5,195.5 Z"/></g>
</svg>
